<svg width="264" height="59" viewBox="0 0 264 59" fill="none" xmlns="http://www.w3.org/2000/svg">
<path d="M264 51L139 51L132 59L125 51L6.99382e-07 51L5.15794e-06 -2.30796e-05L264 0L264 32L264 51Z" fill="#9D5CD0"/>
<path d="M33.8262 21H32.4199V13.6348H28.6406V21H27.2402V12.4336H33.8262V21ZM39.2285 21.1172C38.4082 21.1172 37.7715 20.8223 37.3184 20.2324H37.2363C37.291 20.7793 37.3184 21.1113 37.3184 21.2285V23.8828H35.9414V14.5195H37.0547C37.0859 14.6406 37.1504 14.9297 37.248 15.3867H37.3184C37.748 14.7305 38.3926 14.4023 39.252 14.4023C40.0605 14.4023 40.6895 14.6953 41.1387 15.2812C41.5918 15.8672 41.8184 16.6895 41.8184 17.748C41.8184 18.8066 41.5879 19.6328 41.127 20.2266C40.6699 20.8203 40.0371 21.1172 39.2285 21.1172ZM38.8945 15.5273C38.3477 15.5273 37.9473 15.6875 37.6934 16.0078C37.4434 16.3281 37.3184 16.8398 37.3184 17.543V17.748C37.3184 18.5371 37.4434 19.1094 37.6934 19.4648C37.9434 19.8164 38.3516 19.9922 38.918 19.9922C39.3945 19.9922 39.7617 19.7969 40.0195 19.4062C40.2773 19.0156 40.4062 18.459 40.4062 17.7363C40.4062 17.0098 40.2773 16.4609 40.0195 16.0898C39.7656 15.7148 39.3906 15.5273 38.8945 15.5273ZM44.7363 14.5195V17.8418C44.7363 18.2285 44.7051 18.7969 44.6426 19.5469L47.8945 14.5195H49.5762V21H48.252V17.7363C48.252 17.5566 48.2617 17.2656 48.2812 16.8633C48.3047 16.4609 48.3242 16.168 48.3398 15.9844L45.0996 21H43.418V14.5195H44.7363ZM55.2598 19.6816L55.3359 19.4004C55.4961 18.8184 55.6348 18.3711 55.752 18.0586L57.2051 14.5195H59.0391V21H57.7676V15.7676L57.6621 16.1191C57.4863 16.748 57.3379 17.2109 57.2168 17.5078L55.7988 21H54.7559L53.3379 17.4844C53.1426 16.9766 52.9629 16.4043 52.7988 15.7676V21H51.5391V14.5195H53.3613L54.7676 17.9531C54.8926 18.2695 55.0566 18.8457 55.2598 19.6816ZM63.8379 21.1172C62.8301 21.1172 62.041 20.8242 61.4707 20.2383C60.9043 19.6484 60.6211 18.8379 60.6211 17.8066C60.6211 16.748 60.8848 15.916 61.4121 15.3105C61.9395 14.7051 62.6641 14.4023 63.5859 14.4023C64.4414 14.4023 65.1172 14.6621 65.6133 15.1816C66.1094 15.7012 66.3574 16.416 66.3574 17.3262V18.0703H62.0391C62.0586 18.6992 62.2285 19.1836 62.5488 19.5234C62.8691 19.8594 63.3203 20.0273 63.9023 20.0273C64.2852 20.0273 64.6406 19.9922 64.9688 19.9219C65.3008 19.8477 65.6562 19.7266 66.0352 19.5586V20.6777C65.6992 20.8379 65.3594 20.9512 65.0156 21.0176C64.6719 21.084 64.2793 21.1172 63.8379 21.1172ZM63.5859 15.4453C63.1484 15.4453 62.7969 15.584 62.5312 15.8613C62.2695 16.1387 62.1133 16.543 62.0625 17.0742H65.0039C64.9961 16.5391 64.8672 16.1348 64.6172 15.8613C64.3672 15.584 64.0234 15.4453 63.5859 15.4453ZM71.209 21.1172C70.3887 21.1172 69.752 20.8223 69.2988 20.2324H69.2168C69.2715 20.7793 69.2988 21.1113 69.2988 21.2285V23.8828H67.9219V14.5195H69.0352C69.0664 14.6406 69.1309 14.9297 69.2285 15.3867H69.2988C69.7285 14.7305 70.373 14.4023 71.2324 14.4023C72.041 14.4023 72.6699 14.6953 73.1191 15.2812C73.5723 15.8672 73.7988 16.6895 73.7988 17.748C73.7988 18.8066 73.5684 19.6328 73.1074 20.2266C72.6504 20.8203 72.0176 21.1172 71.209 21.1172ZM70.875 15.5273C70.3281 15.5273 69.9277 15.6875 69.6738 16.0078C69.4238 16.3281 69.2988 16.8398 69.2988 17.543V17.748C69.2988 18.5371 69.4238 19.1094 69.6738 19.4648C69.9238 19.8164 70.332 19.9922 70.8984 19.9922C71.375 19.9922 71.7422 19.7969 72 19.4062C72.2578 19.0156 72.3867 18.459 72.3867 17.7363C72.3867 17.0098 72.2578 16.4609 72 16.0898C71.7461 15.7148 71.3711 15.5273 70.875 15.5273ZM81.1289 21.1172C80.1484 21.1172 79.4023 20.832 78.8906 20.2617C78.3828 19.6875 78.1289 18.8652 78.1289 17.7949C78.1289 16.7051 78.3945 15.8672 78.9258 15.2812C79.4609 14.6953 80.2324 14.4023 81.2402 14.4023C81.9238 14.4023 82.5391 14.5293 83.0859 14.7832L82.6699 15.8906C82.0879 15.6641 81.6074 15.5508 81.2285 15.5508C80.1074 15.5508 79.5469 16.2949 79.5469 17.7832C79.5469 18.5098 79.6855 19.0566 79.9629 19.4238C80.2441 19.7871 80.6543 19.9688 81.1934 19.9688C81.8066 19.9688 82.3867 19.8164 82.9336 19.5117V20.7129C82.6875 20.8574 82.4238 20.9609 82.1426 21.0234C81.8652 21.0859 81.5273 21.1172 81.1289 21.1172ZM90.2051 17.748C90.2051 18.8066 89.9336 19.6328 89.3906 20.2266C88.8477 20.8203 88.0918 21.1172 87.123 21.1172C86.5176 21.1172 85.9824 20.9805 85.5176 20.707C85.0527 20.4336 84.6953 20.041 84.4453 19.5293C84.1953 19.0176 84.0703 18.4238 84.0703 17.748C84.0703 16.6973 84.3398 15.877 84.8789 15.2871C85.418 14.6973 86.1777 14.4023 87.1582 14.4023C88.0957 14.4023 88.8379 14.7051 89.3848 15.3105C89.9316 15.9121 90.2051 16.7246 90.2051 17.748ZM85.4883 17.748C85.4883 19.2441 86.041 19.9922 87.1465 19.9922C88.2402 19.9922 88.7871 19.2441 88.7871 17.748C88.7871 16.2676 88.2363 15.5273 87.1348 15.5273C86.5566 15.5273 86.1367 15.7188 85.875 16.1016C85.6172 16.4844 85.4883 17.0332 85.4883 17.748ZM97.418 16.1777C97.418 16.9434 96.9707 17.4062 96.0762 17.5664V17.6133C96.5762 17.6719 96.959 17.8301 97.2246 18.0879C97.4902 18.3457 97.623 18.6797 97.623 19.0898C97.623 19.7031 97.3887 20.1758 96.9199 20.5078C96.4551 20.8359 95.7773 21 94.8867 21H91.793V14.5195H94.875C96.5703 14.5195 97.418 15.0723 97.418 16.1777ZM96.2109 19.0078C96.2109 18.6953 96.0898 18.4746 95.8477 18.3457C95.6055 18.2129 95.2422 18.1465 94.7578 18.1465H93.1699V19.9805H94.793C95.7383 19.9805 96.2109 19.6562 96.2109 19.0078ZM96.041 16.2949C96.041 16.0371 95.9395 15.8516 95.7363 15.7383C95.5371 15.6211 95.2383 15.5625 94.8398 15.5625H93.1699V17.1211H94.6348C95.0957 17.1211 95.4453 17.0625 95.6836 16.9453C95.9219 16.8242 96.041 16.6074 96.041 16.2949ZM102.334 21.1172C101.514 21.1172 100.877 20.8223 100.424 20.2324H100.342C100.396 20.7793 100.424 21.1113 100.424 21.2285V23.8828H99.0469V14.5195H100.16C100.191 14.6406 100.256 14.9297 100.354 15.3867H100.424C100.854 14.7305 101.498 14.4023 102.357 14.4023C103.166 14.4023 103.795 14.6953 104.244 15.2812C104.697 15.8672 104.924 16.6895 104.924 17.748C104.924 18.8066 104.693 19.6328 104.232 20.2266C103.775 20.8203 103.143 21.1172 102.334 21.1172ZM102 15.5273C101.453 15.5273 101.053 15.6875 100.799 16.0078C100.549 16.3281 100.424 16.8398 100.424 17.543V17.748C100.424 18.5371 100.549 19.1094 100.799 19.4648C101.049 19.8164 101.457 19.9922 102.023 19.9922C102.5 19.9922 102.867 19.7969 103.125 19.4062C103.383 19.0156 103.512 18.459 103.512 17.7363C103.512 17.0098 103.383 16.4609 103.125 16.0898C102.871 15.7148 102.496 15.5273 102 15.5273ZM109.354 21.1172C108.346 21.1172 107.557 20.8242 106.986 20.2383C106.42 19.6484 106.137 18.8379 106.137 17.8066C106.137 16.748 106.4 15.916 106.928 15.3105C107.455 14.7051 108.18 14.4023 109.102 14.4023C109.957 14.4023 110.633 14.6621 111.129 15.1816C111.625 15.7012 111.873 16.416 111.873 17.3262V18.0703H107.555C107.574 18.6992 107.744 19.1836 108.064 19.5234C108.385 19.8594 108.836 20.0273 109.418 20.0273C109.801 20.0273 110.156 19.9922 110.484 19.9219C110.816 19.8477 111.172 19.7266 111.551 19.5586V20.6777C111.215 20.8379 110.875 20.9512 110.531 21.0176C110.188 21.084 109.795 21.1172 109.354 21.1172ZM109.102 15.4453C108.664 15.4453 108.312 15.584 108.047 15.8613C107.785 16.1387 107.629 16.543 107.578 17.0742H110.52C110.512 16.5391 110.383 16.1348 110.133 15.8613C109.883 15.584 109.539 15.4453 109.102 15.4453ZM117.158 19.6816L117.234 19.4004C117.395 18.8184 117.533 18.3711 117.65 18.0586L119.104 14.5195H120.938V21H119.666V15.7676L119.561 16.1191C119.385 16.748 119.236 17.2109 119.115 17.5078L117.697 21H116.654L115.236 17.4844C115.041 16.9766 114.861 16.4043 114.697 15.7676V21H113.438V14.5195H115.26L116.666 17.9531C116.791 18.2695 116.955 18.8457 117.158 19.6816ZM125.736 21.1172C124.729 21.1172 123.939 20.8242 123.369 20.2383C122.803 19.6484 122.52 18.8379 122.52 17.8066C122.52 16.748 122.783 15.916 123.311 15.3105C123.838 14.7051 124.562 14.4023 125.484 14.4023C126.34 14.4023 127.016 14.6621 127.512 15.1816C128.008 15.7012 128.256 16.416 128.256 17.3262V18.0703H123.938C123.957 18.6992 124.127 19.1836 124.447 19.5234C124.768 19.8594 125.219 20.0273 125.801 20.0273C126.184 20.0273 126.539 19.9922 126.867 19.9219C127.199 19.8477 127.555 19.7266 127.934 19.5586V20.6777C127.598 20.8379 127.258 20.9512 126.914 21.0176C126.57 21.084 126.178 21.1172 125.736 21.1172ZM125.484 15.4453C125.047 15.4453 124.695 15.584 124.43 15.8613C124.168 16.1387 124.012 16.543 123.961 17.0742H126.902C126.895 16.5391 126.766 16.1348 126.516 15.8613C126.266 15.584 125.922 15.4453 125.484 15.4453ZM131.197 14.5195V17.1211H134.25V14.5195H135.627V21H134.25V18.2051H131.197V21H129.82V14.5195H131.197ZM138.979 14.5195V17.1211H142.031V14.5195H143.408V21H142.031V18.2051H138.979V21H137.602V14.5195H138.979ZM146.76 17.1094H148.072C148.979 17.1094 149.648 17.2656 150.082 17.5781C150.516 17.8906 150.732 18.3594 150.732 18.9844C150.732 19.6523 150.506 20.1562 150.053 20.4961C149.604 20.832 148.943 21 148.072 21H145.383V14.5195H146.76V17.1094ZM149.367 19.0195C149.367 18.6953 149.246 18.4688 149.004 18.3398C148.766 18.2109 148.422 18.1465 147.973 18.1465H146.76V19.9805H147.797C148.352 19.9805 148.752 19.9023 148.998 19.7461C149.244 19.5898 149.367 19.3477 149.367 19.0195ZM153.135 21H151.752V14.5195H153.135V21ZM156.551 17.6895L154.377 14.5195H155.947L157.424 16.7871L158.912 14.5195H160.471L158.291 17.6895L160.582 21H159.023L157.424 18.5742L155.83 21H154.271L156.551 17.6895ZM169.705 14.5195V15.5977H167.596V21H166.213V15.5977H164.104V14.5195H169.705ZM173.783 21.1172C172.775 21.1172 171.986 20.8242 171.416 20.2383C170.85 19.6484 170.566 18.8379 170.566 17.8066C170.566 16.748 170.83 15.916 171.357 15.3105C171.885 14.7051 172.609 14.4023 173.531 14.4023C174.387 14.4023 175.062 14.6621 175.559 15.1816C176.055 15.7012 176.303 16.416 176.303 17.3262V18.0703H171.984C172.004 18.6992 172.174 19.1836 172.494 19.5234C172.814 19.8594 173.266 20.0273 173.848 20.0273C174.23 20.0273 174.586 19.9922 174.914 19.9219C175.246 19.8477 175.602 19.7266 175.98 19.5586V20.6777C175.645 20.8379 175.305 20.9512 174.961 21.0176C174.617 21.084 174.225 21.1172 173.783 21.1172ZM173.531 15.4453C173.094 15.4453 172.742 15.584 172.477 15.8613C172.215 16.1387 172.059 16.543 172.008 17.0742H174.949C174.941 16.5391 174.812 16.1348 174.562 15.8613C174.312 15.584 173.969 15.4453 173.531 15.4453ZM179.244 14.5195V17.1211H182.297V14.5195H183.674V21H182.297V18.2051H179.244V21H177.867V14.5195H179.244ZM191.865 23.291H190.582V21H186.141V23.291H184.869V19.9336H185.396C185.857 19.2734 186.223 18.4766 186.492 17.543C186.766 16.6055 186.928 15.5977 186.979 14.5195H190.916V19.9336H191.865V23.291ZM189.562 19.9336V15.5742H188.168C188.094 16.3789 187.938 17.1719 187.699 17.9531C187.465 18.7344 187.178 19.3945 186.838 19.9336H189.562ZM195.896 21.1172C194.889 21.1172 194.1 20.8242 193.529 20.2383C192.963 19.6484 192.68 18.8379 192.68 17.8066C192.68 16.748 192.943 15.916 193.471 15.3105C193.998 14.7051 194.723 14.4023 195.645 14.4023C196.5 14.4023 197.176 14.6621 197.672 15.1816C198.168 15.7012 198.416 16.416 198.416 17.3262V18.0703H194.098C194.117 18.6992 194.287 19.1836 194.607 19.5234C194.928 19.8594 195.379 20.0273 195.961 20.0273C196.344 20.0273 196.699 19.9922 197.027 19.9219C197.359 19.8477 197.715 19.7266 198.094 19.5586V20.6777C197.758 20.8379 197.418 20.9512 197.074 21.0176C196.73 21.084 196.338 21.1172 195.896 21.1172ZM195.645 15.4453C195.207 15.4453 194.855 15.584 194.59 15.8613C194.328 16.1387 194.172 16.543 194.121 17.0742H197.062C197.055 16.5391 196.926 16.1348 196.676 15.8613C196.426 15.584 196.082 15.4453 195.645 15.4453ZM201.357 14.5195V17.1211H204.41V14.5195H205.787V21H204.41V18.2051H201.357V21H199.98V14.5195H201.357ZM213.533 19.9336H214.471V23.2793H213.176V21H207.762V14.5195H209.139V19.9102H212.156V14.5195H213.533V19.9336ZM216.967 14.5195V17.8418C216.967 18.2285 216.936 18.7969 216.873 19.5469L220.125 14.5195H221.807V21H220.482V17.7363C220.482 17.5566 220.492 17.2656 220.512 16.8633C220.535 16.4609 220.555 16.168 220.57 15.9844L217.33 21H215.648V14.5195H216.967ZM225.088 14.5195V17.8418C225.088 18.2285 225.057 18.7969 224.994 19.5469L228.246 14.5195H229.928V21H228.604V17.7363C228.604 17.5566 228.613 17.2656 228.633 16.8633C228.656 16.4609 228.676 16.168 228.691 15.9844L225.451 21H223.77V14.5195H225.088ZM226.805 13.7285C225.977 13.7285 225.369 13.5801 224.982 13.2832C224.6 12.9824 224.387 12.4824 224.344 11.7832H225.592C225.615 12.0645 225.668 12.2832 225.75 12.4395C225.836 12.5957 225.957 12.709 226.113 12.7793C226.273 12.8457 226.516 12.8789 226.84 12.8789C227.223 12.8789 227.514 12.7949 227.713 12.627C227.912 12.4551 228.033 12.1738 228.076 11.7832H229.348C229.289 12.4551 229.053 12.9473 228.639 13.2598C228.225 13.5723 227.613 13.7285 226.805 13.7285ZM234.445 18.3691V17.1973H237.457V18.3691H234.445ZM16.8691 37.1172C15.8887 37.1172 15.1426 36.832 14.6309 36.2617C14.123 35.6875 13.8691 34.8652 13.8691 33.7949C13.8691 32.7051 14.1348 31.8672 14.666 31.2812C15.2012 30.6953 15.9727 30.4023 16.9805 30.4023C17.6641 30.4023 18.2793 30.5293 18.8262 30.7832L18.4102 31.8906C17.8281 31.6641 17.3477 31.5508 16.9688 31.5508C15.8477 31.5508 15.2871 32.2949 15.2871 33.7832C15.2871 34.5098 15.4258 35.0566 15.7031 35.4238C15.9844 35.7871 16.3945 35.9688 16.9336 35.9688C17.5469 35.9688 18.127 35.8164 18.6738 35.5117V36.7129C18.4277 36.8574 18.1641 36.9609 17.8828 37.0234C17.6055 37.0859 17.2676 37.1172 16.8691 37.1172ZM25.9453 33.748C25.9453 34.8066 25.6738 35.6328 25.1309 36.2266C24.5879 36.8203 23.832 37.1172 22.8633 37.1172C22.2578 37.1172 21.7227 36.9805 21.2578 36.707C20.793 36.4336 20.4355 36.041 20.1855 35.5293C19.9355 35.0176 19.8105 34.4238 19.8105 33.748C19.8105 32.6973 20.0801 31.877 20.6191 31.2871C21.1582 30.6973 21.918 30.4023 22.8984 30.4023C23.8359 30.4023 24.5781 30.7051 25.125 31.3105C25.6719 31.9121 25.9453 32.7246 25.9453 33.748ZM21.2285 33.748C21.2285 35.2441 21.7812 35.9922 22.8867 35.9922C23.9805 35.9922 24.5273 35.2441 24.5273 33.748C24.5273 32.2676 23.9766 31.5273 22.875 31.5273C22.2969 31.5273 21.877 31.7188 21.6152 32.1016C21.3574 32.4844 21.2285 33.0332 21.2285 33.748ZM33.1582 32.1777C33.1582 32.9434 32.7109 33.4062 31.8164 33.5664V33.6133C32.3164 33.6719 32.6992 33.8301 32.9648 34.0879C33.2305 34.3457 33.3633 34.6797 33.3633 35.0898C33.3633 35.7031 33.1289 36.1758 32.6602 36.5078C32.1953 36.8359 31.5176 37 30.627 37H27.5332V30.5195H30.6152C32.3105 30.5195 33.1582 31.0723 33.1582 32.1777ZM31.9512 35.0078C31.9512 34.6953 31.8301 34.4746 31.5879 34.3457C31.3457 34.2129 30.9824 34.1465 30.498 34.1465H28.9102V35.9805H30.5332C31.4785 35.9805 31.9512 35.6562 31.9512 35.0078ZM31.7812 32.2949C31.7812 32.0371 31.6797 31.8516 31.4766 31.7383C31.2773 31.6211 30.9785 31.5625 30.5801 31.5625H28.9102V33.1211H30.375C30.8359 33.1211 31.1855 33.0625 31.4238 32.9453C31.6621 32.8242 31.7812 32.6074 31.7812 32.2949ZM38.0742 37.1172C37.2539 37.1172 36.6172 36.8223 36.1641 36.2324H36.082C36.1367 36.7793 36.1641 37.1113 36.1641 37.2285V39.8828H34.7871V30.5195H35.9004C35.9316 30.6406 35.9961 30.9297 36.0938 31.3867H36.1641C36.5938 30.7305 37.2383 30.4023 38.0977 30.4023C38.9062 30.4023 39.5352 30.6953 39.9844 31.2812C40.4375 31.8672 40.6641 32.6895 40.6641 33.748C40.6641 34.8066 40.4336 35.6328 39.9727 36.2266C39.5156 36.8203 38.8828 37.1172 38.0742 37.1172ZM37.7402 31.5273C37.1934 31.5273 36.793 31.6875 36.5391 32.0078C36.2891 32.3281 36.1641 32.8398 36.1641 33.543V33.748C36.1641 34.5371 36.2891 35.1094 36.5391 35.4648C36.7891 35.8164 37.1973 35.9922 37.7637 35.9922C38.2402 35.9922 38.6074 35.7969 38.8652 35.4062C39.123 35.0156 39.252 34.459 39.252 33.7363C39.252 33.0098 39.123 32.4609 38.8652 32.0898C38.6113 31.7148 38.2363 31.5273 37.7402 31.5273ZM45.0938 37.1172C44.0859 37.1172 43.2969 36.8242 42.7266 36.2383C42.1602 35.6484 41.877 34.8379 41.877 33.8066C41.877 32.748 42.1406 31.916 42.668 31.3105C43.1953 30.7051 43.9199 30.4023 44.8418 30.4023C45.6973 30.4023 46.373 30.6621 46.8691 31.1816C47.3652 31.7012 47.6133 32.416 47.6133 33.3262V34.0703H43.2949C43.3145 34.6992 43.4844 35.1836 43.8047 35.5234C44.125 35.8594 44.5762 36.0273 45.1582 36.0273C45.541 36.0273 45.8965 35.9922 46.2246 35.9219C46.5566 35.8477 46.9121 35.7266 47.291 35.5586V36.6777C46.9551 36.8379 46.6152 36.9512 46.2715 37.0176C45.9277 37.084 45.5352 37.1172 45.0938 37.1172ZM44.8418 31.4453C44.4043 31.4453 44.0527 31.584 43.7871 31.8613C43.5254 32.1387 43.3691 32.543 43.3184 33.0742H46.2598C46.252 32.5391 46.123 32.1348 45.873 31.8613C45.623 31.584 45.2793 31.4453 44.8418 31.4453ZM52.8984 35.6816L52.9746 35.4004C53.1348 34.8184 53.2734 34.3711 53.3906 34.0586L54.8438 30.5195H56.6777V37H55.4062V31.7676L55.3008 32.1191C55.125 32.748 54.9766 33.2109 54.8555 33.5078L53.4375 37H52.3945L50.9766 33.4844C50.7812 32.9766 50.6016 32.4043 50.4375 31.7676V37H49.1777V30.5195H51L52.4062 33.9531C52.5312 34.2695 52.6953 34.8457 52.8984 35.6816ZM61.4766 37.1172C60.4688 37.1172 59.6797 36.8242 59.1094 36.2383C58.543 35.6484 58.2598 34.8379 58.2598 33.8066C58.2598 32.748 58.5234 31.916 59.0508 31.3105C59.5781 30.7051 60.3027 30.4023 61.2246 30.4023C62.0801 30.4023 62.7559 30.6621 63.252 31.1816C63.748 31.7012 63.9961 32.416 63.9961 33.3262V34.0703H59.6777C59.6973 34.6992 59.8672 35.1836 60.1875 35.5234C60.5078 35.8594 60.959 36.0273 61.541 36.0273C61.9238 36.0273 62.2793 35.9922 62.6074 35.9219C62.9395 35.8477 63.2949 35.7266 63.6738 35.5586V36.6777C63.3379 36.8379 62.998 36.9512 62.6543 37.0176C62.3105 37.084 61.918 37.1172 61.4766 37.1172ZM61.2246 31.4453C60.7871 31.4453 60.4355 31.584 60.1699 31.8613C59.9082 32.1387 59.752 32.543 59.7012 33.0742H62.6426C62.6348 32.5391 62.5059 32.1348 62.2559 31.8613C62.0059 31.584 61.6621 31.4453 61.2246 31.4453ZM66.9375 30.5195V33.1211H69.9902V30.5195H71.3672V37H69.9902V34.2051H66.9375V37H65.5605V30.5195H66.9375ZM74.7188 30.5195V33.1211H77.7715V30.5195H79.1484V37H77.7715V34.2051H74.7188V37H73.3418V30.5195H74.7188ZM85.1777 37L84.9023 36.0977H84.8555C84.543 36.4922 84.2285 36.7617 83.9121 36.9062C83.5957 37.0469 83.1895 37.1172 82.6934 37.1172C82.0566 37.1172 81.5586 36.9453 81.1992 36.6016C80.8438 36.2578 80.666 35.7715 80.666 35.1426C80.666 34.4746 80.9141 33.9707 81.4102 33.6309C81.9062 33.291 82.6621 33.1055 83.6777 33.0742L84.7969 33.0391V32.6934C84.7969 32.2793 84.6992 31.9707 84.5039 31.7676C84.3125 31.5605 84.0137 31.457 83.6074 31.457C83.2754 31.457 82.957 31.5059 82.6523 31.6035C82.3477 31.7012 82.0547 31.8164 81.7734 31.9492L81.3281 30.9648C81.6797 30.7812 82.0645 30.6426 82.4824 30.5488C82.9004 30.4512 83.2949 30.4023 83.666 30.4023C84.4902 30.4023 85.1113 30.582 85.5293 30.9414C85.9512 31.3008 86.1621 31.8652 86.1621 32.6348V37H85.1777ZM83.127 36.0625C83.627 36.0625 84.0273 35.9238 84.3281 35.6465C84.6328 35.3652 84.7852 34.9727 84.7852 34.4688V33.9062L83.9531 33.9414C83.3047 33.9648 82.832 34.0742 82.5352 34.2695C82.2422 34.4609 82.0957 34.7559 82.0957 35.1543C82.0957 35.4434 82.1816 35.668 82.3535 35.8281C82.5254 35.9844 82.7832 36.0625 83.127 36.0625ZM88.7461 37H87.2051L89.0098 34.3457C88.5723 34.2207 88.2285 33.998 87.9785 33.6777C87.7285 33.3535 87.6035 32.9531 87.6035 32.4766C87.6035 31.8633 87.8223 31.3848 88.2598 31.041C88.6973 30.6934 89.2949 30.5195 90.0527 30.5195H93.0059V37H91.623V34.5039H90.3164L88.7461 37ZM88.9453 32.4883C88.9453 32.8203 89.0703 33.0703 89.3203 33.2383C89.5742 33.4023 89.9141 33.4844 90.3398 33.4844H91.623V31.5625H90.123C89.748 31.5625 89.457 31.6426 89.25 31.8027C89.0469 31.9629 88.9453 32.1914 88.9453 32.4883ZM101.812 35.6816L101.889 35.4004C102.049 34.8184 102.188 34.3711 102.305 34.0586L103.758 30.5195H105.592V37H104.32V31.7676L104.215 32.1191C104.039 32.748 103.891 33.2109 103.77 33.5078L102.352 37H101.309L99.8906 33.4844C99.6953 32.9766 99.5156 32.4043 99.3516 31.7676V37H98.0918V30.5195H99.9141L101.32 33.9531C101.445 34.2695 101.609 34.8457 101.812 35.6816ZM110.391 37.1172C109.383 37.1172 108.594 36.8242 108.023 36.2383C107.457 35.6484 107.174 34.8379 107.174 33.8066C107.174 32.748 107.438 31.916 107.965 31.3105C108.492 30.7051 109.217 30.4023 110.139 30.4023C110.994 30.4023 111.67 30.6621 112.166 31.1816C112.662 31.7012 112.91 32.416 112.91 33.3262V34.0703H108.592C108.611 34.6992 108.781 35.1836 109.102 35.5234C109.422 35.8594 109.873 36.0273 110.455 36.0273C110.838 36.0273 111.193 35.9922 111.521 35.9219C111.854 35.8477 112.209 35.7266 112.588 35.5586V36.6777C112.252 36.8379 111.912 36.9512 111.568 37.0176C111.225 37.084 110.832 37.1172 110.391 37.1172ZM110.139 31.4453C109.701 31.4453 109.35 31.584 109.084 31.8613C108.822 32.1387 108.666 32.543 108.615 33.0742H111.557C111.549 32.5391 111.42 32.1348 111.17 31.8613C110.92 31.584 110.576 31.4453 110.139 31.4453ZM119.344 30.5195V31.5977H117.234V37H115.852V31.5977H113.742V30.5195H119.344ZM126.34 33.748C126.34 34.8066 126.068 35.6328 125.525 36.2266C124.982 36.8203 124.227 37.1172 123.258 37.1172C122.652 37.1172 122.117 36.9805 121.652 36.707C121.188 36.4336 120.83 36.041 120.58 35.5293C120.33 35.0176 120.205 34.4238 120.205 33.748C120.205 32.6973 120.475 31.877 121.014 31.2871C121.553 30.6973 122.312 30.4023 123.293 30.4023C124.23 30.4023 124.973 30.7051 125.52 31.3105C126.066 31.9121 126.34 32.7246 126.34 33.748ZM121.623 33.748C121.623 35.2441 122.176 35.9922 123.281 35.9922C124.375 35.9922 124.922 35.2441 124.922 33.748C124.922 32.2676 124.371 31.5273 123.27 31.5273C122.691 31.5273 122.271 31.7188 122.01 32.1016C121.752 32.4844 121.623 33.0332 121.623 33.748ZM134.145 39.291H132.861V37H128.42V39.291H127.148V35.9336H127.676C128.137 35.2734 128.502 34.4766 128.771 33.543C129.045 32.6055 129.207 31.5977 129.258 30.5195H133.195V35.9336H134.145V39.291ZM131.842 35.9336V31.5742H130.447C130.373 32.3789 130.217 33.1719 129.979 33.9531C129.744 34.7344 129.457 35.3945 129.117 35.9336H131.842ZM141.094 33.748C141.094 34.8066 140.822 35.6328 140.279 36.2266C139.736 36.8203 138.98 37.1172 138.012 37.1172C137.406 37.1172 136.871 36.9805 136.406 36.707C135.941 36.4336 135.584 36.041 135.334 35.5293C135.084 35.0176 134.959 34.4238 134.959 33.748C134.959 32.6973 135.229 31.877 135.768 31.2871C136.307 30.6973 137.066 30.4023 138.047 30.4023C138.984 30.4023 139.727 30.7051 140.273 31.3105C140.82 31.9121 141.094 32.7246 141.094 33.748ZM136.377 33.748C136.377 35.2441 136.93 35.9922 138.035 35.9922C139.129 35.9922 139.676 35.2441 139.676 33.748C139.676 32.2676 139.125 31.5273 138.023 31.5273C137.445 31.5273 137.025 31.7188 136.764 32.1016C136.506 32.4844 136.377 33.0332 136.377 33.748ZM148.008 37H146.619V31.5977H144.832C144.723 32.9883 144.574 34.0742 144.387 34.8555C144.203 35.6367 143.961 36.207 143.66 36.5664C143.363 36.9258 142.977 37.1055 142.5 37.1055C142.199 37.1055 141.947 37.0625 141.744 36.9766V35.8984C141.889 35.9531 142.033 35.9805 142.178 35.9805C142.576 35.9805 142.889 35.5332 143.115 34.6387C143.346 33.7402 143.525 32.3672 143.654 30.5195H148.008V37ZM155.73 33.748C155.73 34.8066 155.459 35.6328 154.916 36.2266C154.373 36.8203 153.617 37.1172 152.648 37.1172C152.043 37.1172 151.508 36.9805 151.043 36.707C150.578 36.4336 150.221 36.041 149.971 35.5293C149.721 35.0176 149.596 34.4238 149.596 33.748C149.596 32.6973 149.865 31.877 150.404 31.2871C150.943 30.6973 151.703 30.4023 152.684 30.4023C153.621 30.4023 154.363 30.7051 154.91 31.3105C155.457 31.9121 155.73 32.7246 155.73 33.748ZM151.014 33.748C151.014 35.2441 151.566 35.9922 152.672 35.9922C153.766 35.9922 154.312 35.2441 154.312 33.748C154.312 32.2676 153.762 31.5273 152.66 31.5273C152.082 31.5273 151.662 31.7188 151.4 32.1016C151.143 32.4844 151.014 33.0332 151.014 33.748ZM161.508 30.5195V31.5977H158.695V37H157.318V30.5195H161.508ZM164.074 30.5195V33.8418C164.074 34.2285 164.043 34.7969 163.98 35.5469L167.232 30.5195H168.914V37H167.59V33.7363C167.59 33.5566 167.6 33.2656 167.619 32.8633C167.643 32.4609 167.662 32.168 167.678 31.9844L164.438 37H162.756V30.5195H164.074ZM171.539 37H169.998L171.803 34.3457C171.365 34.2207 171.021 33.998 170.771 33.6777C170.521 33.3535 170.396 32.9531 170.396 32.4766C170.396 31.8633 170.615 31.3848 171.053 31.041C171.49 30.6934 172.088 30.5195 172.846 30.5195H175.799V37H174.416V34.5039H173.109L171.539 37ZM171.738 32.4883C171.738 32.8203 171.863 33.0703 172.113 33.2383C172.367 33.4023 172.707 33.4844 173.133 33.4844H174.416V31.5625H172.916C172.541 31.5625 172.25 31.6426 172.043 31.8027C171.84 31.9629 171.738 32.1914 171.738 32.4883ZM184.172 37.1172C183.352 37.1172 182.715 36.8223 182.262 36.2324H182.18C182.234 36.7793 182.262 37.1113 182.262 37.2285V39.8828H180.885V30.5195H181.998C182.029 30.6406 182.094 30.9297 182.191 31.3867H182.262C182.691 30.7305 183.336 30.4023 184.195 30.4023C185.004 30.4023 185.633 30.6953 186.082 31.2812C186.535 31.8672 186.762 32.6895 186.762 33.748C186.762 34.8066 186.531 35.6328 186.07 36.2266C185.613 36.8203 184.98 37.1172 184.172 37.1172ZM183.838 31.5273C183.291 31.5273 182.891 31.6875 182.637 32.0078C182.387 32.3281 182.262 32.8398 182.262 33.543V33.748C182.262 34.5371 182.387 35.1094 182.637 35.4648C182.887 35.8164 183.295 35.9922 183.861 35.9922C184.338 35.9922 184.705 35.7969 184.963 35.4062C185.221 35.0156 185.35 34.459 185.35 33.7363C185.35 33.0098 185.221 32.4609 184.963 32.0898C184.709 31.7148 184.334 31.5273 183.838 31.5273ZM192.416 37L192.141 36.0977H192.094C191.781 36.4922 191.467 36.7617 191.15 36.9062C190.834 37.0469 190.428 37.1172 189.932 37.1172C189.295 37.1172 188.797 36.9453 188.438 36.6016C188.082 36.2578 187.904 35.7715 187.904 35.1426C187.904 34.4746 188.152 33.9707 188.648 33.6309C189.145 33.291 189.9 33.1055 190.916 33.0742L192.035 33.0391V32.6934C192.035 32.2793 191.938 31.9707 191.742 31.7676C191.551 31.5605 191.252 31.457 190.846 31.457C190.514 31.457 190.195 31.5059 189.891 31.6035C189.586 31.7012 189.293 31.8164 189.012 31.9492L188.566 30.9648C188.918 30.7812 189.303 30.6426 189.721 30.5488C190.139 30.4512 190.533 30.4023 190.904 30.4023C191.729 30.4023 192.35 30.582 192.768 30.9414C193.189 31.3008 193.4 31.8652 193.4 32.6348V37H192.416ZM190.365 36.0625C190.865 36.0625 191.266 35.9238 191.566 35.6465C191.871 35.3652 192.023 34.9727 192.023 34.4688V33.9062L191.191 33.9414C190.543 33.9648 190.07 34.0742 189.773 34.2695C189.48 34.4609 189.334 34.7559 189.334 35.1543C189.334 35.4434 189.42 35.668 189.592 35.8281C189.764 35.9844 190.021 36.0625 190.365 36.0625ZM196.752 33.1094C197.381 33.1094 197.844 33.041 198.141 32.9043C198.438 32.7637 198.586 32.5488 198.586 32.2598C198.586 31.7324 198.117 31.4688 197.18 31.4688C196.555 31.4688 195.916 31.6094 195.264 31.8906L194.818 30.8652C195.572 30.5566 196.404 30.4023 197.314 30.4023C198.119 30.4023 198.744 30.5508 199.189 30.8477C199.635 31.1406 199.857 31.5625 199.857 32.1133C199.857 32.8398 199.441 33.3164 198.609 33.543V33.5898C199.129 33.7305 199.5 33.9316 199.723 34.1934C199.949 34.4551 200.062 34.7793 200.062 35.166C200.062 35.7598 199.801 36.2344 199.277 36.5898C198.758 36.9414 198.031 37.1172 197.098 37.1172C196.078 37.1172 195.299 36.9824 194.76 36.7129V35.5234C195.475 35.8594 196.215 36.0273 196.98 36.0273C197.531 36.0273 197.955 35.9512 198.252 35.7988C198.553 35.6426 198.703 35.4062 198.703 35.0898C198.703 34.7656 198.553 34.5273 198.252 34.375C197.951 34.2227 197.486 34.1465 196.857 34.1465H196.066V33.1094H196.752ZM204.844 37.1172C204.023 37.1172 203.387 36.8223 202.934 36.2324H202.852C202.906 36.7793 202.934 37.1113 202.934 37.2285V39.8828H201.557V30.5195H202.67C202.701 30.6406 202.766 30.9297 202.863 31.3867H202.934C203.363 30.7305 204.008 30.4023 204.867 30.4023C205.676 30.4023 206.305 30.6953 206.754 31.2812C207.207 31.8672 207.434 32.6895 207.434 33.748C207.434 34.8066 207.203 35.6328 206.742 36.2266C206.285 36.8203 205.652 37.1172 204.844 37.1172ZM204.51 31.5273C203.963 31.5273 203.562 31.6875 203.309 32.0078C203.059 32.3281 202.934 32.8398 202.934 33.543V33.748C202.934 34.5371 203.059 35.1094 203.309 35.4648C203.559 35.8164 203.967 35.9922 204.533 35.9922C205.01 35.9922 205.377 35.7969 205.635 35.4062C205.893 35.0156 206.021 34.459 206.021 33.7363C206.021 33.0098 205.893 32.4609 205.635 32.0898C205.381 31.7148 205.006 31.5273 204.51 31.5273ZM213.088 37L212.812 36.0977H212.766C212.453 36.4922 212.139 36.7617 211.822 36.9062C211.506 37.0469 211.1 37.1172 210.604 37.1172C209.967 37.1172 209.469 36.9453 209.109 36.6016C208.754 36.2578 208.576 35.7715 208.576 35.1426C208.576 34.4746 208.824 33.9707 209.32 33.6309C209.816 33.291 210.572 33.1055 211.588 33.0742L212.707 33.0391V32.6934C212.707 32.2793 212.609 31.9707 212.414 31.7676C212.223 31.5605 211.924 31.457 211.518 31.457C211.186 31.457 210.867 31.5059 210.562 31.6035C210.258 31.7012 209.965 31.8164 209.684 31.9492L209.238 30.9648C209.59 30.7812 209.975 30.6426 210.393 30.5488C210.811 30.4512 211.205 30.4023 211.576 30.4023C212.4 30.4023 213.021 30.582 213.439 30.9414C213.861 31.3008 214.072 31.8652 214.072 32.6348V37H213.088ZM211.037 36.0625C211.537 36.0625 211.938 35.9238 212.238 35.6465C212.543 35.3652 212.695 34.9727 212.695 34.4688V33.9062L211.863 33.9414C211.215 33.9648 210.742 34.0742 210.445 34.2695C210.152 34.4609 210.006 34.7559 210.006 35.1543C210.006 35.4434 210.092 35.668 210.264 35.8281C210.436 35.9844 210.693 36.0625 211.037 36.0625ZM215.619 33.1094C215.619 31.6641 215.863 30.5527 216.352 29.7754C216.844 28.998 217.625 28.498 218.695 28.2754C219.504 28.1113 220.436 27.9512 221.49 27.7949L221.684 29.0078C220.402 29.2031 219.465 29.3555 218.871 29.4648C218.258 29.5781 217.814 29.8301 217.541 30.2207C217.271 30.6113 217.115 31.1992 217.072 31.9844H217.16C217.383 31.6602 217.674 31.4102 218.033 31.2344C218.393 31.0547 218.777 30.9648 219.188 30.9648C219.984 30.9648 220.605 31.2168 221.051 31.7207C221.496 32.2246 221.719 32.9316 221.719 33.8418C221.719 34.8848 221.447 35.6914 220.904 36.2617C220.365 36.832 219.617 37.1172 218.66 37.1172C217.711 37.1172 216.967 36.7656 216.428 36.0625C215.889 35.3594 215.619 34.375 215.619 33.1094ZM218.754 35.9922C219.777 35.9922 220.289 35.3203 220.289 33.9766C220.289 32.6797 219.826 32.0312 218.9 32.0312C218.646 32.0312 218.4 32.0859 218.162 32.1953C217.924 32.3047 217.703 32.4492 217.5 32.6289C217.301 32.8086 217.146 32.9941 217.037 33.1855C217.037 34.1074 217.184 34.8066 217.477 35.2832C217.77 35.7559 218.195 35.9922 218.754 35.9922ZM229.055 33.748C229.055 34.8066 228.783 35.6328 228.24 36.2266C227.697 36.8203 226.941 37.1172 225.973 37.1172C225.367 37.1172 224.832 36.9805 224.367 36.707C223.902 36.4336 223.545 36.041 223.295 35.5293C223.045 35.0176 222.92 34.4238 222.92 33.748C222.92 32.6973 223.189 31.877 223.729 31.2871C224.268 30.6973 225.027 30.4023 226.008 30.4023C226.945 30.4023 227.688 30.7051 228.234 31.3105C228.781 31.9121 229.055 32.7246 229.055 33.748ZM224.338 33.748C224.338 35.2441 224.891 35.9922 225.996 35.9922C227.09 35.9922 227.637 35.2441 227.637 33.748C227.637 32.2676 227.086 31.5273 225.984 31.5273C225.406 31.5273 224.986 31.7188 224.725 32.1016C224.467 32.4844 224.338 33.0332 224.338 33.748ZM235.512 30.5195V31.5977H233.402V37H232.02V31.5977H229.91V30.5195H235.512ZM240.779 30.5195H242.291L239.613 33.6426L242.52 37H240.938L238.137 33.7129V37H236.76V30.5195H238.137V33.666L240.779 30.5195ZM244.91 30.5195V33.8418C244.91 34.2285 244.879 34.7969 244.816 35.5469L248.068 30.5195H249.75V37H248.426V33.7363C248.426 33.5566 248.436 33.2656 248.455 32.8633C248.479 32.4609 248.498 32.168 248.514 31.9844L245.273 37H243.592V30.5195H244.91Z" fill="white"/>
</svg>
