<svg width="242" height="42" viewBox="0 0 242 42" fill="none" xmlns="http://www.w3.org/2000/svg">
<path d="M237 34L128 34L121 42L114 34L5 34L5 -2.02821e-05L237 0L237 15L237 34Z" fill="#9D5CD0"/>
<path d="M19.2578 11.4336H21.8008C22.9805 11.4336 23.832 11.6055 24.3555 11.9492C24.8828 12.293 25.1465 12.8359 25.1465 13.5781C25.1465 14.0781 25.0176 14.4941 24.7598 14.8262C24.502 15.1582 24.1309 15.3672 23.6465 15.4531V15.5117C24.248 15.625 24.6895 15.8496 24.9707 16.1855C25.2559 16.5176 25.3984 16.9688 25.3984 17.5391C25.3984 18.3086 25.1289 18.9121 24.5898 19.3496C24.0547 19.7832 23.3086 20 22.3516 20H19.2578V11.4336ZM20.6582 14.9727H22.0059C22.5918 14.9727 23.0195 14.8809 23.2891 14.6973C23.5586 14.5098 23.6934 14.1934 23.6934 13.748C23.6934 13.3457 23.5469 13.0547 23.2539 12.875C22.9648 12.6953 22.5039 12.6055 21.8711 12.6055H20.6582V14.9727ZM20.6582 16.1094V18.8223H22.1465C22.7324 18.8223 23.1738 18.7109 23.4707 18.4883C23.7715 18.2617 23.9219 17.9062 23.9219 17.4219C23.9219 16.9766 23.7695 16.6465 23.4648 16.4316C23.1602 16.2168 22.6973 16.1094 22.0762 16.1094H20.6582ZM32.7637 20.1172C31.7832 20.1172 31.0371 19.832 30.5254 19.2617C30.0176 18.6875 29.7637 17.8652 29.7637 16.7949C29.7637 15.7051 30.0293 14.8672 30.5605 14.2812C31.0957 13.6953 31.8672 13.4023 32.875 13.4023C33.5586 13.4023 34.1738 13.5293 34.7207 13.7832L34.3047 14.8906C33.7227 14.6641 33.2422 14.5508 32.8633 14.5508C31.7422 14.5508 31.1816 15.2949 31.1816 16.7832C31.1816 17.5098 31.3203 18.0566 31.5977 18.4238C31.8789 18.7871 32.2891 18.9688 32.8281 18.9688C33.4414 18.9688 34.0215 18.8164 34.5684 18.5117V19.7129C34.3223 19.8574 34.0586 19.9609 33.7773 20.0234C33.5 20.0859 33.1621 20.1172 32.7637 20.1172ZM40.9609 13.5195V14.5977H38.8516V20H37.4688V14.5977H35.3594V13.5195H40.9609ZM45.4961 20.1172C44.6758 20.1172 44.0391 19.8223 43.5859 19.2324H43.5039C43.5586 19.7793 43.5859 20.1113 43.5859 20.2285V22.8828H42.209V13.5195H43.3223C43.3535 13.6406 43.418 13.9297 43.5156 14.3867H43.5859C44.0156 13.7305 44.6602 13.4023 45.5195 13.4023C46.3281 13.4023 46.957 13.6953 47.4062 14.2812C47.8594 14.8672 48.0859 15.6895 48.0859 16.748C48.0859 17.8066 47.8555 18.6328 47.3945 19.2266C46.9375 19.8203 46.3047 20.1172 45.4961 20.1172ZM45.1621 14.5273C44.6152 14.5273 44.2148 14.6875 43.9609 15.0078C43.7109 15.3281 43.5859 15.8398 43.5859 16.543V16.748C43.5859 17.5371 43.7109 18.1094 43.9609 18.4648C44.2109 18.8164 44.6191 18.9922 45.1855 18.9922C45.6621 18.9922 46.0293 18.7969 46.2871 18.4062C46.5449 18.0156 46.6738 17.459 46.6738 16.7363C46.6738 16.0098 46.5449 15.4609 46.2871 15.0898C46.0332 14.7148 45.6582 14.5273 45.1621 14.5273ZM52.5156 20.1172C51.5078 20.1172 50.7188 19.8242 50.1484 19.2383C49.582 18.6484 49.2988 17.8379 49.2988 16.8066C49.2988 15.748 49.5625 14.916 50.0898 14.3105C50.6172 13.7051 51.3418 13.4023 52.2637 13.4023C53.1191 13.4023 53.7949 13.6621 54.291 14.1816C54.7871 14.7012 55.0352 15.416 55.0352 16.3262V17.0703H50.7168C50.7363 17.6992 50.9062 18.1836 51.2266 18.5234C51.5469 18.8594 51.998 19.0273 52.5801 19.0273C52.9629 19.0273 53.3184 18.9922 53.6465 18.9219C53.9785 18.8477 54.334 18.7266 54.7129 18.5586V19.6777C54.377 19.8379 54.0371 19.9512 53.6934 20.0176C53.3496 20.084 52.957 20.1172 52.5156 20.1172ZM52.2637 14.4453C51.8262 14.4453 51.4746 14.584 51.209 14.8613C50.9473 15.1387 50.791 15.543 50.7402 16.0742H53.6816C53.6738 15.5391 53.5449 15.1348 53.2949 14.8613C53.0449 14.584 52.7012 14.4453 52.2637 14.4453ZM60.3203 18.6816L60.3965 18.4004C60.5566 17.8184 60.6953 17.3711 60.8125 17.0586L62.2656 13.5195H64.0996V20H62.8281V14.7676L62.7227 15.1191C62.5469 15.748 62.3984 16.2109 62.2773 16.5078L60.8594 20H59.8164L58.3984 16.4844C58.2031 15.9766 58.0234 15.4043 57.8594 14.7676V20H56.5996V13.5195H58.4219L59.8281 16.9531C59.9531 17.2695 60.1172 17.8457 60.3203 18.6816ZM71.3945 20H70.0059V14.5977H68.2188C68.1094 15.9883 67.9609 17.0742 67.7734 17.8555C67.5898 18.6367 67.3477 19.207 67.0469 19.5664C66.75 19.9258 66.3633 20.1055 65.8867 20.1055C65.5859 20.1055 65.334 20.0625 65.1309 19.9766V18.8984C65.2754 18.9531 65.4199 18.9805 65.5645 18.9805C65.9629 18.9805 66.2754 18.5332 66.502 17.6387C66.7324 16.7402 66.9121 15.3672 67.041 13.5195H71.3945V20ZM76.1992 20.1172C75.1914 20.1172 74.4023 19.8242 73.832 19.2383C73.2656 18.6484 72.9824 17.8379 72.9824 16.8066C72.9824 15.748 73.2461 14.916 73.7734 14.3105C74.3008 13.7051 75.0254 13.4023 75.9473 13.4023C76.8027 13.4023 77.4785 13.6621 77.9746 14.1816C78.4707 14.7012 78.7188 15.416 78.7188 16.3262V17.0703H74.4004C74.4199 17.6992 74.5898 18.1836 74.9102 18.5234C75.2305 18.8594 75.6816 19.0273 76.2637 19.0273C76.6465 19.0273 77.002 18.9922 77.3301 18.9219C77.6621 18.8477 78.0176 18.7266 78.3965 18.5586V19.6777C78.0605 19.8379 77.7207 19.9512 77.377 20.0176C77.0332 20.084 76.6406 20.1172 76.1992 20.1172ZM75.9473 14.4453C75.5098 14.4453 75.1582 14.584 74.8926 14.8613C74.6309 15.1387 74.4746 15.543 74.4238 16.0742H77.3652C77.3574 15.5391 77.2285 15.1348 76.9785 14.8613C76.7285 14.584 76.3848 14.4453 75.9473 14.4453ZM81.6602 13.5195V16.1211H84.7129V13.5195H86.0898V20H84.7129V17.2051H81.6602V20H80.2832V13.5195H81.6602ZM89.3828 13.5195V16.8418C89.3828 17.2285 89.3516 17.7969 89.2891 18.5469L92.541 13.5195H94.2227V20H92.8984V16.7363C92.8984 16.5566 92.9082 16.2656 92.9277 15.8633C92.9512 15.4609 92.9707 15.168 92.9863 14.9844L89.7461 20H88.0645V13.5195H89.3828ZM97.5039 13.5195V16.8418C97.5039 17.2285 97.4727 17.7969 97.4102 18.5469L100.662 13.5195H102.344V20H101.02V16.7363C101.02 16.5566 101.029 16.2656 101.049 15.8633C101.072 15.4609 101.092 15.168 101.107 14.9844L97.8672 20H96.1855V13.5195H97.5039ZM113.09 13.5195V20H111.707V14.6094H108.801V20H107.424V13.5195H113.09ZM120.812 16.748C120.812 17.8066 120.541 18.6328 119.998 19.2266C119.455 19.8203 118.699 20.1172 117.73 20.1172C117.125 20.1172 116.59 19.9805 116.125 19.707C115.66 19.4336 115.303 19.041 115.053 18.5293C114.803 18.0176 114.678 17.4238 114.678 16.748C114.678 15.6973 114.947 14.877 115.486 14.2871C116.025 13.6973 116.785 13.4023 117.766 13.4023C118.703 13.4023 119.445 13.7051 119.992 14.3105C120.539 14.9121 120.812 15.7246 120.812 16.748ZM116.096 16.748C116.096 18.2441 116.648 18.9922 117.754 18.9922C118.848 18.9922 119.395 18.2441 119.395 16.748C119.395 15.2676 118.844 14.5273 117.742 14.5273C117.164 14.5273 116.744 14.7188 116.482 15.1016C116.225 15.4844 116.096 16.0332 116.096 16.748ZM128.025 15.1777C128.025 15.9434 127.578 16.4062 126.684 16.5664V16.6133C127.184 16.6719 127.566 16.8301 127.832 17.0879C128.098 17.3457 128.23 17.6797 128.23 18.0898C128.23 18.7031 127.996 19.1758 127.527 19.5078C127.062 19.8359 126.385 20 125.494 20H122.4V13.5195H125.482C127.178 13.5195 128.025 14.0723 128.025 15.1777ZM126.818 18.0078C126.818 17.6953 126.697 17.4746 126.455 17.3457C126.213 17.2129 125.85 17.1465 125.365 17.1465H123.777V18.9805H125.4C126.346 18.9805 126.818 18.6562 126.818 18.0078ZM126.648 15.2949C126.648 15.0371 126.547 14.8516 126.344 14.7383C126.145 14.6211 125.846 14.5625 125.447 14.5625H123.777V16.1211H125.242C125.703 16.1211 126.053 16.0625 126.291 15.9453C126.529 15.8242 126.648 15.6074 126.648 15.2949ZM131.031 16.1094H132.344C133.25 16.1094 133.92 16.2656 134.354 16.5781C134.787 16.8906 135.004 17.3594 135.004 17.9844C135.004 18.6523 134.777 19.1562 134.324 19.4961C133.875 19.832 133.215 20 132.344 20H129.654V13.5195H131.031V16.1094ZM133.639 18.0195C133.639 17.6953 133.518 17.4688 133.275 17.3398C133.037 17.2109 132.693 17.1465 132.244 17.1465H131.031V18.9805H132.068C132.623 18.9805 133.023 18.9023 133.27 18.7461C133.516 18.5898 133.639 18.3477 133.639 18.0195ZM137.406 20H136.023V13.5195H137.406V20ZM141.994 20.1172C141.014 20.1172 140.268 19.832 139.756 19.2617C139.248 18.6875 138.994 17.8652 138.994 16.7949C138.994 15.7051 139.26 14.8672 139.791 14.2812C140.326 13.6953 141.098 13.4023 142.105 13.4023C142.789 13.4023 143.404 13.5293 143.951 13.7832L143.535 14.8906C142.953 14.6641 142.473 14.5508 142.094 14.5508C140.973 14.5508 140.412 15.2949 140.412 16.7832C140.412 17.5098 140.551 18.0566 140.828 18.4238C141.109 18.7871 141.52 18.9688 142.059 18.9688C142.672 18.9688 143.252 18.8164 143.799 18.5117V19.7129C143.553 19.8574 143.289 19.9609 143.008 20.0234C142.73 20.0859 142.393 20.1172 141.994 20.1172ZM146.641 13.5195V16.8418C146.641 17.2285 146.609 17.7969 146.547 18.5469L149.799 13.5195H151.48V20H150.156V16.7363C150.156 16.5566 150.166 16.2656 150.186 15.8633C150.209 15.4609 150.229 15.168 150.244 14.9844L147.004 20H145.322V13.5195H146.641ZM158.312 13.5195V14.5977H156.203V20H154.82V14.5977H152.711V13.5195H158.312ZM160.938 16.1094H162.561C164.369 16.1094 165.273 16.7344 165.273 17.9844C165.273 18.6445 165.043 19.1465 164.582 19.4902C164.121 19.8301 163.447 20 162.561 20H159.561V13.5195H160.938V16.1094ZM163.891 18.0195C163.891 17.6953 163.768 17.4688 163.521 17.3398C163.275 17.2109 162.928 17.1465 162.479 17.1465H160.938V18.9805H162.502C162.955 18.9805 163.299 18.8984 163.533 18.7344C163.771 18.5703 163.891 18.332 163.891 18.0195ZM173.939 13.5195H175.451L172.773 16.6426L175.68 20H174.098L171.297 16.7129V20H169.92V13.5195H171.297V16.666L173.939 13.5195ZM180.807 20L180.531 19.0977H180.484C180.172 19.4922 179.857 19.7617 179.541 19.9062C179.225 20.0469 178.818 20.1172 178.322 20.1172C177.686 20.1172 177.188 19.9453 176.828 19.6016C176.473 19.2578 176.295 18.7715 176.295 18.1426C176.295 17.4746 176.543 16.9707 177.039 16.6309C177.535 16.291 178.291 16.1055 179.307 16.0742L180.426 16.0391V15.6934C180.426 15.2793 180.328 14.9707 180.133 14.7676C179.941 14.5605 179.643 14.457 179.236 14.457C178.904 14.457 178.586 14.5059 178.281 14.6035C177.977 14.7012 177.684 14.8164 177.402 14.9492L176.957 13.9648C177.309 13.7812 177.693 13.6426 178.111 13.5488C178.529 13.4512 178.924 13.4023 179.295 13.4023C180.119 13.4023 180.74 13.582 181.158 13.9414C181.58 14.3008 181.791 14.8652 181.791 15.6348V20H180.807ZM178.756 19.0625C179.256 19.0625 179.656 18.9238 179.957 18.6465C180.262 18.3652 180.414 17.9727 180.414 17.4688V16.9062L179.582 16.9414C178.934 16.9648 178.461 17.0742 178.164 17.2695C177.871 17.4609 177.725 17.7559 177.725 18.1543C177.725 18.4434 177.811 18.668 177.982 18.8281C178.154 18.9844 178.412 19.0625 178.756 19.0625ZM184.926 13.5195V15.8867C184.926 16.5508 185.27 16.8828 185.957 16.8828C186.289 16.8828 186.613 16.8379 186.93 16.748C187.246 16.6543 187.586 16.5059 187.949 16.3027V13.5195H189.326V20H187.949V17.252C187.57 17.4863 187.203 17.6602 186.848 17.7734C186.496 17.8828 186.111 17.9375 185.693 17.9375C185.018 17.9375 184.49 17.7637 184.111 17.416C183.732 17.0645 183.543 16.5742 183.543 15.9453V13.5195H184.926ZM194.125 20.1172C193.117 20.1172 192.328 19.8242 191.758 19.2383C191.191 18.6484 190.908 17.8379 190.908 16.8066C190.908 15.748 191.172 14.916 191.699 14.3105C192.227 13.7051 192.951 13.4023 193.873 13.4023C194.729 13.4023 195.404 13.6621 195.9 14.1816C196.396 14.7012 196.645 15.416 196.645 16.3262V17.0703H192.326C192.346 17.6992 192.516 18.1836 192.836 18.5234C193.156 18.8594 193.607 19.0273 194.189 19.0273C194.572 19.0273 194.928 18.9922 195.256 18.9219C195.588 18.8477 195.943 18.7266 196.322 18.5586V19.6777C195.986 19.8379 195.646 19.9512 195.303 20.0176C194.959 20.084 194.566 20.1172 194.125 20.1172ZM193.873 14.4453C193.436 14.4453 193.084 14.584 192.818 14.8613C192.557 15.1387 192.4 15.543 192.35 16.0742H195.291C195.283 15.5391 195.154 15.1348 194.904 14.8613C194.654 14.584 194.311 14.4453 193.873 14.4453ZM200.822 20.1172C199.842 20.1172 199.096 19.832 198.584 19.2617C198.076 18.6875 197.822 17.8652 197.822 16.7949C197.822 15.7051 198.088 14.8672 198.619 14.2812C199.154 13.6953 199.926 13.4023 200.934 13.4023C201.617 13.4023 202.232 13.5293 202.779 13.7832L202.363 14.8906C201.781 14.6641 201.301 14.5508 200.922 14.5508C199.801 14.5508 199.24 15.2949 199.24 16.7832C199.24 17.5098 199.379 18.0566 199.656 18.4238C199.938 18.7871 200.348 18.9688 200.887 18.9688C201.5 18.9688 202.08 18.8164 202.627 18.5117V19.7129C202.381 19.8574 202.117 19.9609 201.836 20.0234C201.559 20.0859 201.221 20.1172 200.822 20.1172ZM209.02 13.5195V14.5977H206.91V20H205.527V14.5977H203.418V13.5195H209.02ZM215.893 15.1777C215.893 15.9434 215.445 16.4062 214.551 16.5664V16.6133C215.051 16.6719 215.434 16.8301 215.699 17.0879C215.965 17.3457 216.098 17.6797 216.098 18.0898C216.098 18.7031 215.863 19.1758 215.395 19.5078C214.93 19.8359 214.252 20 213.361 20H210.268V13.5195H213.35C215.045 13.5195 215.893 14.0723 215.893 15.1777ZM214.686 18.0078C214.686 17.6953 214.564 17.4746 214.322 17.3457C214.08 17.2129 213.717 17.1465 213.232 17.1465H211.645V18.9805H213.268C214.213 18.9805 214.686 18.6562 214.686 18.0078ZM214.516 15.2949C214.516 15.0371 214.414 14.8516 214.211 14.7383C214.012 14.6211 213.713 14.5625 213.314 14.5625H211.645V16.1211H213.109C213.57 16.1211 213.92 16.0625 214.158 15.9453C214.396 15.8242 214.516 15.6074 214.516 15.2949ZM223.27 16.748C223.27 17.8066 222.998 18.6328 222.455 19.2266C221.912 19.8203 221.156 20.1172 220.188 20.1172C219.582 20.1172 219.047 19.9805 218.582 19.707C218.117 19.4336 217.76 19.041 217.51 18.5293C217.26 18.0176 217.135 17.4238 217.135 16.748C217.135 15.6973 217.404 14.877 217.943 14.2871C218.482 13.6973 219.242 13.4023 220.223 13.4023C221.16 13.4023 221.902 13.7051 222.449 14.3105C222.996 14.9121 223.27 15.7246 223.27 16.748ZM218.553 16.748C218.553 18.2441 219.105 18.9922 220.211 18.9922C221.305 18.9922 221.852 18.2441 221.852 16.748C221.852 15.2676 221.301 14.5273 220.199 14.5273C219.621 14.5273 219.201 14.7188 218.939 15.1016C218.682 15.4844 218.553 16.0332 218.553 16.748Z" fill="white"/>
</svg>
