<svg width="264" height="74" viewBox="0 0 264 74" fill="none" xmlns="http://www.w3.org/2000/svg">
<path d="M264 66L139 66L132 74L125 66L6.99382e-07 66L6.46929e-06 -2.30796e-05L264 0L264 47L264 66Z" fill="#9D5CD0"/>
<path d="M30.6504 20H29.2441V12.6348H25.4648V20H24.0645V11.4336H30.6504V20ZM36.0527 20.1172C35.2324 20.1172 34.5957 19.8223 34.1426 19.2324H34.0605C34.1152 19.7793 34.1426 20.1113 34.1426 20.2285V22.8828H32.7656V13.5195H33.8789C33.9102 13.6406 33.9746 13.9297 34.0723 14.3867H34.1426C34.5723 13.7305 35.2168 13.4023 36.0762 13.4023C36.8848 13.4023 37.5137 13.6953 37.9629 14.2812C38.416 14.8672 38.6426 15.6895 38.6426 16.748C38.6426 17.8066 38.4121 18.6328 37.9512 19.2266C37.4941 19.8203 36.8613 20.1172 36.0527 20.1172ZM35.7188 14.5273C35.1719 14.5273 34.7715 14.6875 34.5176 15.0078C34.2676 15.3281 34.1426 15.8398 34.1426 16.543V16.748C34.1426 17.5371 34.2676 18.1094 34.5176 18.4648C34.7676 18.8164 35.1758 18.9922 35.7422 18.9922C36.2188 18.9922 36.5859 18.7969 36.8438 18.4062C37.1016 18.0156 37.2305 17.459 37.2305 16.7363C37.2305 16.0098 37.1016 15.4609 36.8438 15.0898C36.5898 14.7148 36.2148 14.5273 35.7188 14.5273ZM41.5605 13.5195V16.8418C41.5605 17.2285 41.5293 17.7969 41.4668 18.5469L44.7188 13.5195H46.4004V20H45.0762V16.7363C45.0762 16.5566 45.0859 16.2656 45.1055 15.8633C45.1289 15.4609 45.1484 15.168 45.1641 14.9844L41.9238 20H40.2422V13.5195H41.5605ZM49.0254 20H47.4844L49.2891 17.3457C48.8516 17.2207 48.5078 16.998 48.2578 16.6777C48.0078 16.3535 47.8828 15.9531 47.8828 15.4766C47.8828 14.8633 48.1016 14.3848 48.5391 14.041C48.9766 13.6934 49.5742 13.5195 50.332 13.5195H53.2852V20H51.9023V17.5039H50.5957L49.0254 20ZM49.2246 15.4883C49.2246 15.8203 49.3496 16.0703 49.5996 16.2383C49.8535 16.4023 50.1934 16.4844 50.6191 16.4844H51.9023V14.5625H50.4023C50.0273 14.5625 49.7363 14.6426 49.5293 14.8027C49.3262 14.9629 49.2246 15.1914 49.2246 15.4883ZM60.123 13.5195V14.5977H58.0137V20H56.6309V14.5977H54.5215V13.5195H60.123ZM62.748 13.5195V16.1211H65.8008V13.5195H67.1777V20H65.8008V17.2051H62.748V20H61.3711V13.5195H62.748ZM74.9004 16.748C74.9004 17.8066 74.6289 18.6328 74.0859 19.2266C73.543 19.8203 72.7871 20.1172 71.8184 20.1172C71.2129 20.1172 70.6777 19.9805 70.2129 19.707C69.748 19.4336 69.3906 19.041 69.1406 18.5293C68.8906 18.0176 68.7656 17.4238 68.7656 16.748C68.7656 15.6973 69.0352 14.877 69.5742 14.2871C70.1133 13.6973 70.873 13.4023 71.8535 13.4023C72.791 13.4023 73.5332 13.7051 74.0801 14.3105C74.627 14.9121 74.9004 15.7246 74.9004 16.748ZM70.1836 16.748C70.1836 18.2441 70.7363 18.9922 71.8418 18.9922C72.9355 18.9922 73.4824 18.2441 73.4824 16.748C73.4824 15.2676 72.9316 14.5273 71.8301 14.5273C71.252 14.5273 70.832 14.7188 70.5703 15.1016C70.3125 15.4844 70.1836 16.0332 70.1836 16.748ZM77.918 18.7402C77.7305 19.4668 77.3867 20.4023 76.8867 21.5469H75.873C76.1426 20.4922 76.3438 19.5117 76.4766 18.6055H77.8301L77.918 18.7402ZM87.0059 13.5195V14.5977H84.1934V20H82.8164V13.5195H87.0059ZM91.541 20.1172C90.7207 20.1172 90.084 19.8223 89.6309 19.2324H89.5488C89.6035 19.7793 89.6309 20.1113 89.6309 20.2285V22.8828H88.2539V13.5195H89.3672C89.3984 13.6406 89.4629 13.9297 89.5605 14.3867H89.6309C90.0605 13.7305 90.7051 13.4023 91.5645 13.4023C92.373 13.4023 93.002 13.6953 93.4512 14.2812C93.9043 14.8672 94.1309 15.6895 94.1309 16.748C94.1309 17.8066 93.9004 18.6328 93.4395 19.2266C92.9824 19.8203 92.3496 20.1172 91.541 20.1172ZM91.207 14.5273C90.6602 14.5273 90.2598 14.6875 90.0059 15.0078C89.7559 15.3281 89.6309 15.8398 89.6309 16.543V16.748C89.6309 17.5371 89.7559 18.1094 90.0059 18.4648C90.2559 18.8164 90.6641 18.9922 91.2305 18.9922C91.707 18.9922 92.0742 18.7969 92.332 18.4062C92.5898 18.0156 92.7188 17.459 92.7188 16.7363C92.7188 16.0098 92.5898 15.4609 92.332 15.0898C92.0781 14.7148 91.7031 14.5273 91.207 14.5273ZM99.7852 20L99.5098 19.0977H99.4629C99.1504 19.4922 98.8359 19.7617 98.5195 19.9062C98.2031 20.0469 97.7969 20.1172 97.3008 20.1172C96.6641 20.1172 96.166 19.9453 95.8066 19.6016C95.4512 19.2578 95.2734 18.7715 95.2734 18.1426C95.2734 17.4746 95.5215 16.9707 96.0176 16.6309C96.5137 16.291 97.2695 16.1055 98.2852 16.0742L99.4043 16.0391V15.6934C99.4043 15.2793 99.3066 14.9707 99.1113 14.7676C98.9199 14.5605 98.6211 14.457 98.2148 14.457C97.8828 14.457 97.5645 14.5059 97.2598 14.6035C96.9551 14.7012 96.6621 14.8164 96.3809 14.9492L95.9355 13.9648C96.2871 13.7812 96.6719 13.6426 97.0898 13.5488C97.5078 13.4512 97.9023 13.4023 98.2734 13.4023C99.0977 13.4023 99.7188 13.582 100.137 13.9414C100.559 14.3008 100.77 14.8652 100.77 15.6348V20H99.7852ZM97.7344 19.0625C98.2344 19.0625 98.6348 18.9238 98.9355 18.6465C99.2402 18.3652 99.3926 17.9727 99.3926 17.4688V16.9062L98.5605 16.9414C97.9121 16.9648 97.4395 17.0742 97.1426 17.2695C96.8496 17.4609 96.7031 17.7559 96.7031 18.1543C96.7031 18.4434 96.7891 18.668 96.9609 18.8281C97.1328 18.9844 97.3906 19.0625 97.7344 19.0625ZM105.885 16.666V13.5195H107.168V16.666L109.664 13.5195H111.117L108.568 16.6543L111.346 20H109.828L107.168 16.7129V20H105.885V16.7129L103.23 20H101.719L104.49 16.6543L101.947 13.5195H103.4L105.885 16.666ZM118.564 22.291H117.281V20H112.84V22.291H111.568V18.9336H112.096C112.557 18.2734 112.922 17.4766 113.191 16.543C113.465 15.6055 113.627 14.5977 113.678 13.5195H117.615V18.9336H118.564V22.291ZM116.262 18.9336V14.5742H114.867C114.793 15.3789 114.637 16.1719 114.398 16.9531C114.164 17.7344 113.877 18.3945 113.537 18.9336H116.262ZM123.82 20L123.545 19.0977H123.498C123.186 19.4922 122.871 19.7617 122.555 19.9062C122.238 20.0469 121.832 20.1172 121.336 20.1172C120.699 20.1172 120.201 19.9453 119.842 19.6016C119.486 19.2578 119.309 18.7715 119.309 18.1426C119.309 17.4746 119.557 16.9707 120.053 16.6309C120.549 16.291 121.305 16.1055 122.32 16.0742L123.439 16.0391V15.6934C123.439 15.2793 123.342 14.9707 123.146 14.7676C122.955 14.5605 122.656 14.457 122.25 14.457C121.918 14.457 121.6 14.5059 121.295 14.6035C120.99 14.7012 120.697 14.8164 120.416 14.9492L119.971 13.9648C120.322 13.7812 120.707 13.6426 121.125 13.5488C121.543 13.4512 121.938 13.4023 122.309 13.4023C123.133 13.4023 123.754 13.582 124.172 13.9414C124.594 14.3008 124.805 14.8652 124.805 15.6348V20H123.82ZM121.77 19.0625C122.27 19.0625 122.67 18.9238 122.971 18.6465C123.275 18.3652 123.428 17.9727 123.428 17.4688V16.9062L122.596 16.9414C121.947 16.9648 121.475 17.0742 121.178 17.2695C120.885 17.4609 120.738 17.7559 120.738 18.1543C120.738 18.4434 120.824 18.668 120.996 18.8281C121.168 18.9844 121.426 19.0625 121.77 19.0625ZM128.104 13.5195V16.1211H131.156V13.5195H132.533V20H131.156V17.2051H128.104V20H126.727V13.5195H128.104ZM137.338 20.1172C136.33 20.1172 135.541 19.8242 134.971 19.2383C134.404 18.6484 134.121 17.8379 134.121 16.8066C134.121 15.748 134.385 14.916 134.912 14.3105C135.439 13.7051 136.164 13.4023 137.086 13.4023C137.941 13.4023 138.617 13.6621 139.113 14.1816C139.609 14.7012 139.857 15.416 139.857 16.3262V17.0703H135.539C135.559 17.6992 135.729 18.1836 136.049 18.5234C136.369 18.8594 136.82 19.0273 137.402 19.0273C137.785 19.0273 138.141 18.9922 138.469 18.9219C138.801 18.8477 139.156 18.7266 139.535 18.5586V19.6777C139.199 19.8379 138.859 19.9512 138.516 20.0176C138.172 20.084 137.779 20.1172 137.338 20.1172ZM137.086 14.4453C136.648 14.4453 136.297 14.584 136.031 14.8613C135.77 15.1387 135.613 15.543 135.562 16.0742H138.504C138.496 15.5391 138.367 15.1348 138.117 14.8613C137.867 14.584 137.523 14.4453 137.086 14.4453ZM142.852 18.7402C142.664 19.4668 142.32 20.4023 141.82 21.5469H140.807C141.076 20.4922 141.277 19.5117 141.41 18.6055H142.764L142.852 18.7402ZM149.127 13.5195V16.1211H152.18V13.5195H153.557V20H152.18V17.2051H149.127V20H147.75V13.5195H149.127ZM159.586 20L159.311 19.0977H159.264C158.951 19.4922 158.637 19.7617 158.32 19.9062C158.004 20.0469 157.598 20.1172 157.102 20.1172C156.465 20.1172 155.967 19.9453 155.607 19.6016C155.252 19.2578 155.074 18.7715 155.074 18.1426C155.074 17.4746 155.322 16.9707 155.818 16.6309C156.314 16.291 157.07 16.1055 158.086 16.0742L159.205 16.0391V15.6934C159.205 15.2793 159.107 14.9707 158.912 14.7676C158.721 14.5605 158.422 14.457 158.016 14.457C157.684 14.457 157.365 14.5059 157.061 14.6035C156.756 14.7012 156.463 14.8164 156.182 14.9492L155.736 13.9648C156.088 13.7812 156.473 13.6426 156.891 13.5488C157.309 13.4512 157.703 13.4023 158.074 13.4023C158.898 13.4023 159.52 13.582 159.938 13.9414C160.359 14.3008 160.57 14.8652 160.57 15.6348V20H159.586ZM157.535 19.0625C158.035 19.0625 158.436 18.9238 158.736 18.6465C159.041 18.3652 159.193 17.9727 159.193 17.4688V16.9062L158.361 16.9414C157.713 16.9648 157.24 17.0742 156.943 17.2695C156.65 17.4609 156.504 17.7559 156.504 18.1543C156.504 18.4434 156.59 18.668 156.762 18.8281C156.934 18.9844 157.191 19.0625 157.535 19.0625ZM162.117 16.1094C162.117 14.6641 162.361 13.5527 162.85 12.7754C163.342 11.998 164.123 11.498 165.193 11.2754C166.002 11.1113 166.934 10.9512 167.988 10.7949L168.182 12.0078C166.9 12.2031 165.963 12.3555 165.369 12.4648C164.756 12.5781 164.312 12.8301 164.039 13.2207C163.77 13.6113 163.613 14.1992 163.57 14.9844H163.658C163.881 14.6602 164.172 14.4102 164.531 14.2344C164.891 14.0547 165.275 13.9648 165.686 13.9648C166.482 13.9648 167.104 14.2168 167.549 14.7207C167.994 15.2246 168.217 15.9316 168.217 16.8418C168.217 17.8848 167.945 18.6914 167.402 19.2617C166.863 19.832 166.115 20.1172 165.158 20.1172C164.209 20.1172 163.465 19.7656 162.926 19.0625C162.387 18.3594 162.117 17.375 162.117 16.1094ZM165.252 18.9922C166.275 18.9922 166.787 18.3203 166.787 16.9766C166.787 15.6797 166.324 15.0312 165.398 15.0312C165.145 15.0312 164.898 15.0859 164.66 15.1953C164.422 15.3047 164.201 15.4492 163.998 15.6289C163.799 15.8086 163.645 15.9941 163.535 16.1855C163.535 17.1074 163.682 17.8066 163.975 18.2832C164.268 18.7559 164.693 18.9922 165.252 18.9922ZM175.131 20H173.742V14.5977H171.955C171.846 15.9883 171.697 17.0742 171.51 17.8555C171.326 18.6367 171.084 19.207 170.783 19.5664C170.486 19.9258 170.1 20.1055 169.623 20.1055C169.322 20.1055 169.07 20.0625 168.867 19.9766V18.8984C169.012 18.9531 169.156 18.9805 169.301 18.9805C169.699 18.9805 170.012 18.5332 170.238 17.6387C170.469 16.7402 170.648 15.3672 170.777 13.5195H175.131V20ZM185.76 16.748C185.76 17.8105 185.5 18.6387 184.98 19.2324C184.465 19.8223 183.744 20.1172 182.818 20.1172C181.967 20.1172 181.289 19.8672 180.785 19.3672C180.285 18.8633 179.994 18.1426 179.912 17.2051H178.482V20H177.105V13.5195H178.482V16.1211H179.924C180.021 15.2617 180.322 14.5938 180.826 14.1172C181.334 13.6406 182.006 13.4023 182.842 13.4023C183.74 13.4023 184.451 13.7051 184.975 14.3105C185.498 14.9121 185.76 15.7246 185.76 16.748ZM181.318 16.748C181.318 17.4863 181.436 18.0449 181.67 18.4238C181.908 18.8027 182.295 18.9922 182.83 18.9922C183.361 18.9922 183.746 18.8027 183.984 18.4238C184.223 18.0449 184.342 17.4863 184.342 16.748C184.342 16.0176 184.223 15.4648 183.984 15.0898C183.746 14.7148 183.361 14.5273 182.83 14.5273C182.295 14.5273 181.908 14.7148 181.67 15.0898C181.436 15.4648 181.318 16.0176 181.318 16.748ZM193.576 22.291H192.293V20H187.852V22.291H186.58V18.9336H187.107C187.568 18.2734 187.934 17.4766 188.203 16.543C188.477 15.6055 188.639 14.5977 188.689 13.5195H192.627V18.9336H193.576V22.291ZM191.273 18.9336V14.5742H189.879C189.805 15.3789 189.648 16.1719 189.41 16.9531C189.176 17.7344 188.889 18.3945 188.549 18.9336H191.273ZM198.832 20L198.557 19.0977H198.51C198.197 19.4922 197.883 19.7617 197.566 19.9062C197.25 20.0469 196.844 20.1172 196.348 20.1172C195.711 20.1172 195.213 19.9453 194.854 19.6016C194.498 19.2578 194.32 18.7715 194.32 18.1426C194.32 17.4746 194.568 16.9707 195.064 16.6309C195.561 16.291 196.316 16.1055 197.332 16.0742L198.451 16.0391V15.6934C198.451 15.2793 198.354 14.9707 198.158 14.7676C197.967 14.5605 197.668 14.457 197.262 14.457C196.93 14.457 196.611 14.5059 196.307 14.6035C196.002 14.7012 195.709 14.8164 195.428 14.9492L194.982 13.9648C195.334 13.7812 195.719 13.6426 196.137 13.5488C196.555 13.4512 196.949 13.4023 197.32 13.4023C198.145 13.4023 198.766 13.582 199.184 13.9414C199.605 14.3008 199.816 14.8652 199.816 15.6348V20H198.832ZM196.781 19.0625C197.281 19.0625 197.682 18.9238 197.982 18.6465C198.287 18.3652 198.439 17.9727 198.439 17.4688V16.9062L197.607 16.9414C196.959 16.9648 196.486 17.0742 196.189 17.2695C195.896 17.4609 195.75 17.7559 195.75 18.1543C195.75 18.4434 195.836 18.668 196.008 18.8281C196.18 18.9844 196.438 19.0625 196.781 19.0625ZM206.607 13.5195V14.5977H204.498V20H203.115V14.5977H201.006V13.5195H206.607ZM209.232 16.1094H210.855C212.664 16.1094 213.568 16.7344 213.568 17.9844C213.568 18.6445 213.338 19.1465 212.877 19.4902C212.416 19.8301 211.742 20 210.855 20H207.855V13.5195H209.232V16.1094ZM212.186 18.0195C212.186 17.6953 212.062 17.4688 211.816 17.3398C211.57 17.2109 211.223 17.1465 210.773 17.1465H209.232V18.9805H210.797C211.25 18.9805 211.594 18.8984 211.828 18.7344C212.066 18.5703 212.186 18.332 212.186 18.0195ZM216.527 18.7402C216.34 19.4668 215.996 20.4023 215.496 21.5469H214.482C214.752 20.4922 214.953 19.5117 215.086 18.6055H216.439L216.527 18.7402ZM225.445 13.5195H226.957L224.279 16.6426L227.186 20H225.604L222.803 16.7129V20H221.426V13.5195H222.803V16.666L225.445 13.5195ZM232.312 20L232.037 19.0977H231.99C231.678 19.4922 231.363 19.7617 231.047 19.9062C230.73 20.0469 230.324 20.1172 229.828 20.1172C229.191 20.1172 228.693 19.9453 228.334 19.6016C227.979 19.2578 227.801 18.7715 227.801 18.1426C227.801 17.4746 228.049 16.9707 228.545 16.6309C229.041 16.291 229.797 16.1055 230.812 16.0742L231.932 16.0391V15.6934C231.932 15.2793 231.834 14.9707 231.639 14.7676C231.447 14.5605 231.148 14.457 230.742 14.457C230.41 14.457 230.092 14.5059 229.787 14.6035C229.482 14.7012 229.189 14.8164 228.908 14.9492L228.463 13.9648C228.814 13.7812 229.199 13.6426 229.617 13.5488C230.035 13.4512 230.43 13.4023 230.801 13.4023C231.625 13.4023 232.246 13.582 232.664 13.9414C233.086 14.3008 233.297 14.8652 233.297 15.6348V20H232.312ZM230.262 19.0625C230.762 19.0625 231.162 18.9238 231.463 18.6465C231.768 18.3652 231.92 17.9727 231.92 17.4688V16.9062L231.088 16.9414C230.439 16.9648 229.967 17.0742 229.67 17.2695C229.377 17.4609 229.23 17.7559 229.23 18.1543C229.23 18.4434 229.316 18.668 229.488 18.8281C229.66 18.9844 229.918 19.0625 230.262 19.0625ZM239.238 13.5195H240.75L238.072 16.6426L240.979 20H239.396L236.596 16.7129V20H235.219V13.5195H236.596V16.666L239.238 13.5195ZM17.3965 36.1172C16.416 36.1172 15.6699 35.832 15.1582 35.2617C14.6504 34.6875 14.3965 33.8652 14.3965 32.7949C14.3965 31.7051 14.6621 30.8672 15.1934 30.2812C15.7285 29.6953 16.5 29.4023 17.5078 29.4023C18.1914 29.4023 18.8066 29.5293 19.3535 29.7832L18.9375 30.8906C18.3555 30.6641 17.875 30.5508 17.4961 30.5508C16.375 30.5508 15.8145 31.2949 15.8145 32.7832C15.8145 33.5098 15.9531 34.0566 16.2305 34.4238C16.5117 34.7871 16.9219 34.9688 17.4609 34.9688C18.0742 34.9688 18.6543 34.8164 19.2012 34.5117V35.7129C18.9551 35.8574 18.6914 35.9609 18.4102 36.0234C18.1328 36.0859 17.7949 36.1172 17.3965 36.1172ZM26.9414 38.291H25.6582V36H21.2168V38.291H19.9453V34.9336H20.4727C20.9336 34.2734 21.2988 33.4766 21.5684 32.543C21.8418 31.6055 22.0039 30.5977 22.0547 29.5195H25.9922V34.9336H26.9414V38.291ZM24.6387 34.9336V30.5742H23.2441C23.1699 31.3789 23.0137 32.1719 22.7754 32.9531C22.541 33.7344 22.2539 34.3945 21.9141 34.9336H24.6387ZM30.9727 36.1172C29.9648 36.1172 29.1758 35.8242 28.6055 35.2383C28.0391 34.6484 27.7559 33.8379 27.7559 32.8066C27.7559 31.748 28.0195 30.916 28.5469 30.3105C29.0742 29.7051 29.7988 29.4023 30.7207 29.4023C31.5762 29.4023 32.252 29.6621 32.748 30.1816C33.2441 30.7012 33.4922 31.416 33.4922 32.3262V33.0703H29.1738C29.1934 33.6992 29.3633 34.1836 29.6836 34.5234C30.0039 34.8594 30.4551 35.0273 31.0371 35.0273C31.4199 35.0273 31.7754 34.9922 32.1035 34.9219C32.4355 34.8477 32.791 34.7266 33.1699 34.5586V35.6777C32.834 35.8379 32.4941 35.9512 32.1504 36.0176C31.8066 36.084 31.4141 36.1172 30.9727 36.1172ZM30.7207 30.4453C30.2832 30.4453 29.9316 30.584 29.666 30.8613C29.4043 31.1387 29.248 31.543 29.1973 32.0742H32.1387C32.1309 31.5391 32.002 31.1348 31.752 30.8613C31.502 30.584 31.1582 30.4453 30.7207 30.4453ZM40.3828 36H38.9941V30.5977H37.207C37.0977 31.9883 36.9492 33.0742 36.7617 33.8555C36.5781 34.6367 36.3359 35.207 36.0352 35.5664C35.7383 35.9258 35.3516 36.1055 34.875 36.1055C34.5742 36.1055 34.3223 36.0625 34.1191 35.9766V34.8984C34.2637 34.9531 34.4082 34.9805 34.5527 34.9805C34.9512 34.9805 35.2637 34.5332 35.4902 33.6387C35.7207 32.7402 35.9004 31.3672 36.0293 29.5195H40.3828V36ZM46.4121 36L46.1367 35.0977H46.0898C45.7773 35.4922 45.4629 35.7617 45.1465 35.9062C44.8301 36.0469 44.4238 36.1172 43.9277 36.1172C43.291 36.1172 42.793 35.9453 42.4336 35.6016C42.0781 35.2578 41.9004 34.7715 41.9004 34.1426C41.9004 33.4746 42.1484 32.9707 42.6445 32.6309C43.1406 32.291 43.8965 32.1055 44.9121 32.0742L46.0312 32.0391V31.6934C46.0312 31.2793 45.9336 30.9707 45.7383 30.7676C45.5469 30.5605 45.248 30.457 44.8418 30.457C44.5098 30.457 44.1914 30.5059 43.8867 30.6035C43.582 30.7012 43.2891 30.8164 43.0078 30.9492L42.5625 29.9648C42.9141 29.7812 43.2988 29.6426 43.7168 29.5488C44.1348 29.4512 44.5293 29.4023 44.9004 29.4023C45.7246 29.4023 46.3457 29.582 46.7637 29.9414C47.1855 30.3008 47.3965 30.8652 47.3965 31.6348V36H46.4121ZM44.3613 35.0625C44.8613 35.0625 45.2617 34.9238 45.5625 34.6465C45.8672 34.3652 46.0195 33.9727 46.0195 33.4688V32.9062L45.1875 32.9414C44.5391 32.9648 44.0664 33.0742 43.7695 33.2695C43.4766 33.4609 43.3301 33.7559 43.3301 34.1543C43.3301 34.4434 43.416 34.668 43.5879 34.8281C43.7598 34.9844 44.0176 35.0625 44.3613 35.0625ZM50.6953 29.5195V32.1211H53.748V29.5195H55.125V36H53.748V33.2051H50.6953V36H49.3184V29.5195H50.6953ZM58.4766 29.5195V32.1211H61.5293V29.5195H62.9062V36H61.5293V33.2051H58.4766V36H57.0996V29.5195H58.4766ZM66.2578 32.1094H67.5703C68.4766 32.1094 69.1465 32.2656 69.5801 32.5781C70.0137 32.8906 70.2305 33.3594 70.2305 33.9844C70.2305 34.6523 70.0039 35.1562 69.5508 35.4961C69.1016 35.832 68.4414 36 67.5703 36H64.8809V29.5195H66.2578V32.1094ZM68.8652 34.0195C68.8652 33.6953 68.7441 33.4688 68.502 33.3398C68.2637 33.2109 67.9199 33.1465 67.4707 33.1465H66.2578V34.9805H67.2949C67.8496 34.9805 68.25 34.9023 68.4961 34.7461C68.7422 34.5898 68.8652 34.3477 68.8652 34.0195ZM72.6328 36H71.25V29.5195H72.6328V36ZM77.4375 36.1172C76.4297 36.1172 75.6406 35.8242 75.0703 35.2383C74.5039 34.6484 74.2207 33.8379 74.2207 32.8066C74.2207 31.748 74.4844 30.916 75.0117 30.3105C75.5391 29.7051 76.2637 29.4023 77.1855 29.4023C78.041 29.4023 78.7168 29.6621 79.2129 30.1816C79.709 30.7012 79.957 31.416 79.957 32.3262V33.0703H75.6387C75.6582 33.6992 75.8281 34.1836 76.1484 34.5234C76.4688 34.8594 76.9199 35.0273 77.502 35.0273C77.8848 35.0273 78.2402 34.9922 78.5684 34.9219C78.9004 34.8477 79.2559 34.7266 79.6348 34.5586V35.6777C79.2988 35.8379 78.959 35.9512 78.6152 36.0176C78.2715 36.084 77.8789 36.1172 77.4375 36.1172ZM77.1855 30.4453C76.748 30.4453 76.3965 30.584 76.1309 30.8613C75.8691 31.1387 75.7129 31.543 75.6621 32.0742H78.6035C78.5957 31.5391 78.4668 31.1348 78.2168 30.8613C77.9668 30.584 77.623 30.4453 77.1855 30.4453ZM86.0156 29.5195V32.1211H89.0684V29.5195H90.4453V36H89.0684V33.2051H86.0156V36H84.6387V29.5195H86.0156ZM96.4746 36L96.1992 35.0977H96.1523C95.8398 35.4922 95.5254 35.7617 95.209 35.9062C94.8926 36.0469 94.4863 36.1172 93.9902 36.1172C93.3535 36.1172 92.8555 35.9453 92.4961 35.6016C92.1406 35.2578 91.9629 34.7715 91.9629 34.1426C91.9629 33.4746 92.2109 32.9707 92.707 32.6309C93.2031 32.291 93.959 32.1055 94.9746 32.0742L96.0938 32.0391V31.6934C96.0938 31.2793 95.9961 30.9707 95.8008 30.7676C95.6094 30.5605 95.3105 30.457 94.9043 30.457C94.5723 30.457 94.2539 30.5059 93.9492 30.6035C93.6445 30.7012 93.3516 30.8164 93.0703 30.9492L92.625 29.9648C92.9766 29.7812 93.3613 29.6426 93.7793 29.5488C94.1973 29.4512 94.5918 29.4023 94.9629 29.4023C95.7871 29.4023 96.4082 29.582 96.8262 29.9414C97.248 30.3008 97.459 30.8652 97.459 31.6348V36H96.4746ZM94.4238 35.0625C94.9238 35.0625 95.3242 34.9238 95.625 34.6465C95.9297 34.3652 96.082 33.9727 96.082 33.4688V32.9062L95.25 32.9414C94.6016 32.9648 94.1289 33.0742 93.832 33.2695C93.5391 33.4609 93.3926 33.7559 93.3926 34.1543C93.3926 34.4434 93.4785 34.668 93.6504 34.8281C93.8223 34.9844 94.0801 35.0625 94.4238 35.0625ZM102.123 32.1094C102.123 30.6641 102.367 29.5527 102.855 28.7754C103.348 27.998 104.129 27.498 105.199 27.2754C106.008 27.1113 106.939 26.9512 107.994 26.7949L108.188 28.0078C106.906 28.2031 105.969 28.3555 105.375 28.4648C104.762 28.5781 104.318 28.8301 104.045 29.2207C103.775 29.6113 103.619 30.1992 103.576 30.9844H103.664C103.887 30.6602 104.178 30.4102 104.537 30.2344C104.896 30.0547 105.281 29.9648 105.691 29.9648C106.488 29.9648 107.109 30.2168 107.555 30.7207C108 31.2246 108.223 31.9316 108.223 32.8418C108.223 33.8848 107.951 34.6914 107.408 35.2617C106.869 35.832 106.121 36.1172 105.164 36.1172C104.215 36.1172 103.471 35.7656 102.932 35.0625C102.393 34.3594 102.123 33.375 102.123 32.1094ZM105.258 34.9922C106.281 34.9922 106.793 34.3203 106.793 32.9766C106.793 31.6797 106.33 31.0312 105.404 31.0312C105.15 31.0312 104.904 31.0859 104.666 31.1953C104.428 31.3047 104.207 31.4492 104.004 31.6289C103.805 31.8086 103.65 31.9941 103.541 32.1855C103.541 33.1074 103.688 33.8066 103.98 34.2832C104.273 34.7559 104.699 34.9922 105.258 34.9922ZM113.865 36L113.59 35.0977H113.543C113.23 35.4922 112.916 35.7617 112.6 35.9062C112.283 36.0469 111.877 36.1172 111.381 36.1172C110.744 36.1172 110.246 35.9453 109.887 35.6016C109.531 35.2578 109.354 34.7715 109.354 34.1426C109.354 33.4746 109.602 32.9707 110.098 32.6309C110.594 32.291 111.35 32.1055 112.365 32.0742L113.484 32.0391V31.6934C113.484 31.2793 113.387 30.9707 113.191 30.7676C113 30.5605 112.701 30.457 112.295 30.457C111.963 30.457 111.645 30.5059 111.34 30.6035C111.035 30.7012 110.742 30.8164 110.461 30.9492L110.016 29.9648C110.367 29.7812 110.752 29.6426 111.17 29.5488C111.588 29.4512 111.982 29.4023 112.354 29.4023C113.178 29.4023 113.799 29.582 114.217 29.9414C114.639 30.3008 114.85 30.8652 114.85 31.6348V36H113.865ZM111.814 35.0625C112.314 35.0625 112.715 34.9238 113.016 34.6465C113.32 34.3652 113.473 33.9727 113.473 33.4688V32.9062L112.641 32.9414C111.992 32.9648 111.52 33.0742 111.223 33.2695C110.93 33.4609 110.783 33.7559 110.783 34.1543C110.783 34.4434 110.869 34.668 111.041 34.8281C111.213 34.9844 111.471 35.0625 111.814 35.0625ZM118.201 32.1094C118.83 32.1094 119.293 32.041 119.59 31.9043C119.887 31.7637 120.035 31.5488 120.035 31.2598C120.035 30.7324 119.566 30.4688 118.629 30.4688C118.004 30.4688 117.365 30.6094 116.713 30.8906L116.268 29.8652C117.021 29.5566 117.854 29.4023 118.764 29.4023C119.568 29.4023 120.193 29.5508 120.639 29.8477C121.084 30.1406 121.307 30.5625 121.307 31.1133C121.307 31.8398 120.891 32.3164 120.059 32.543V32.5898C120.578 32.7305 120.949 32.9316 121.172 33.1934C121.398 33.4551 121.512 33.7793 121.512 34.166C121.512 34.7598 121.25 35.2344 120.727 35.5898C120.207 35.9414 119.48 36.1172 118.547 36.1172C117.527 36.1172 116.748 35.9824 116.209 35.7129V34.5234C116.924 34.8594 117.664 35.0273 118.43 35.0273C118.98 35.0273 119.404 34.9512 119.701 34.7988C120.002 34.6426 120.152 34.4062 120.152 34.0898C120.152 33.7656 120.002 33.5273 119.701 33.375C119.4 33.2227 118.936 33.1465 118.307 33.1465H117.516V32.1094H118.201ZM125.836 36.1172C124.828 36.1172 124.039 35.8242 123.469 35.2383C122.902 34.6484 122.619 33.8379 122.619 32.8066C122.619 31.748 122.883 30.916 123.41 30.3105C123.938 29.7051 124.662 29.4023 125.584 29.4023C126.439 29.4023 127.115 29.6621 127.611 30.1816C128.107 30.7012 128.355 31.416 128.355 32.3262V33.0703H124.037C124.057 33.6992 124.227 34.1836 124.547 34.5234C124.867 34.8594 125.318 35.0273 125.9 35.0273C126.283 35.0273 126.639 34.9922 126.967 34.9219C127.299 34.8477 127.654 34.7266 128.033 34.5586V35.6777C127.697 35.8379 127.357 35.9512 127.014 36.0176C126.67 36.084 126.277 36.1172 125.836 36.1172ZM125.584 30.4453C125.146 30.4453 124.795 30.584 124.529 30.8613C124.268 31.1387 124.111 31.543 124.061 32.0742H127.002C126.994 31.5391 126.865 31.1348 126.615 30.8613C126.365 30.584 126.021 30.4453 125.584 30.4453ZM137.092 36L136.816 35.0977H136.77C136.457 35.4922 136.143 35.7617 135.826 35.9062C135.51 36.0469 135.104 36.1172 134.607 36.1172C133.971 36.1172 133.473 35.9453 133.113 35.6016C132.758 35.2578 132.58 34.7715 132.58 34.1426C132.58 33.4746 132.828 32.9707 133.324 32.6309C133.82 32.291 134.576 32.1055 135.592 32.0742L136.711 32.0391V31.6934C136.711 31.2793 136.613 30.9707 136.418 30.7676C136.227 30.5605 135.928 30.457 135.521 30.457C135.189 30.457 134.871 30.5059 134.566 30.6035C134.262 30.7012 133.969 30.8164 133.688 30.9492L133.242 29.9648C133.594 29.7812 133.979 29.6426 134.396 29.5488C134.814 29.4512 135.209 29.4023 135.58 29.4023C136.404 29.4023 137.025 29.582 137.443 29.9414C137.865 30.3008 138.076 30.8652 138.076 31.6348V36H137.092ZM135.041 35.0625C135.541 35.0625 135.941 34.9238 136.242 34.6465C136.547 34.3652 136.699 33.9727 136.699 33.4688V32.9062L135.867 32.9414C135.219 32.9648 134.746 33.0742 134.449 33.2695C134.156 33.4609 134.01 33.7559 134.01 34.1543C134.01 34.4434 134.096 34.668 134.268 34.8281C134.439 34.9844 134.697 35.0625 135.041 35.0625ZM141.375 29.5195V32.1211H144.428V29.5195H145.805V36H144.428V33.2051H141.375V36H139.998V29.5195H141.375ZM151.834 36L151.559 35.0977H151.512C151.199 35.4922 150.885 35.7617 150.568 35.9062C150.252 36.0469 149.846 36.1172 149.35 36.1172C148.713 36.1172 148.215 35.9453 147.855 35.6016C147.5 35.2578 147.322 34.7715 147.322 34.1426C147.322 33.4746 147.57 32.9707 148.066 32.6309C148.562 32.291 149.318 32.1055 150.334 32.0742L151.453 32.0391V31.6934C151.453 31.2793 151.355 30.9707 151.16 30.7676C150.969 30.5605 150.67 30.457 150.264 30.457C149.932 30.457 149.613 30.5059 149.309 30.6035C149.004 30.7012 148.711 30.8164 148.43 30.9492L147.984 29.9648C148.336 29.7812 148.721 29.6426 149.139 29.5488C149.557 29.4512 149.951 29.4023 150.322 29.4023C151.146 29.4023 151.768 29.582 152.186 29.9414C152.607 30.3008 152.818 30.8652 152.818 31.6348V36H151.834ZM149.783 35.0625C150.283 35.0625 150.684 34.9238 150.984 34.6465C151.289 34.3652 151.441 33.9727 151.441 33.4688V32.9062L150.609 32.9414C149.961 32.9648 149.488 33.0742 149.191 33.2695C148.898 33.4609 148.752 33.7559 148.752 34.1543C148.752 34.4434 148.838 34.668 149.01 34.8281C149.182 34.9844 149.439 35.0625 149.783 35.0625ZM160.066 36H158.678V30.5977H156.891C156.781 31.9883 156.633 33.0742 156.445 33.8555C156.262 34.6367 156.02 35.207 155.719 35.5664C155.422 35.9258 155.035 36.1055 154.559 36.1055C154.258 36.1055 154.006 36.0625 153.803 35.9766V34.8984C153.947 34.9531 154.092 34.9805 154.236 34.9805C154.635 34.9805 154.947 34.5332 155.174 33.6387C155.404 32.7402 155.584 31.3672 155.713 29.5195H160.066V36ZM163.359 29.5195V32.8418C163.359 33.2285 163.328 33.7969 163.266 34.5469L166.518 29.5195H168.199V36H166.875V32.7363C166.875 32.5566 166.885 32.2656 166.904 31.8633C166.928 31.4609 166.947 31.168 166.963 30.9844L163.723 36H162.041V29.5195H163.359ZM175.031 29.5195V30.5977H172.922V36H171.539V30.5977H169.43V29.5195H175.031ZM177.598 29.5195V32.8418C177.598 33.2285 177.566 33.7969 177.504 34.5469L180.756 29.5195H182.438V36H181.113V32.7363C181.113 32.5566 181.123 32.2656 181.143 31.8633C181.166 31.4609 181.186 31.168 181.201 30.9844L177.961 36H176.279V29.5195H177.598ZM188.42 29.5195H189.932L187.254 32.6426L190.16 36H188.578L185.777 32.7129V36H184.4V29.5195H185.777V32.666L188.42 29.5195ZM192.551 29.5195V32.8418C192.551 33.2285 192.52 33.7969 192.457 34.5469L195.709 29.5195H197.391V36H196.066V32.7363C196.066 32.5566 196.076 32.2656 196.096 31.8633C196.119 31.4609 196.139 31.168 196.154 30.9844L192.914 36H191.232V29.5195H192.551ZM208.096 31.1777C208.096 31.9434 207.648 32.4062 206.754 32.5664V32.6133C207.254 32.6719 207.637 32.8301 207.902 33.0879C208.168 33.3457 208.301 33.6797 208.301 34.0898C208.301 34.7031 208.066 35.1758 207.598 35.5078C207.133 35.8359 206.455 36 205.564 36H202.471V29.5195H205.553C207.248 29.5195 208.096 30.0723 208.096 31.1777ZM206.889 34.0078C206.889 33.6953 206.768 33.4746 206.525 33.3457C206.283 33.2129 205.92 33.1465 205.436 33.1465H203.848V34.9805H205.471C206.416 34.9805 206.889 34.6562 206.889 34.0078ZM206.719 31.2949C206.719 31.0371 206.617 30.8516 206.414 30.7383C206.215 30.6211 205.916 30.5625 205.518 30.5625H203.848V32.1211H205.312C205.773 32.1211 206.123 32.0625 206.361 31.9453C206.6 31.8242 206.719 31.6074 206.719 31.2949ZM211.102 32.1094H212.414C213.32 32.1094 213.99 32.2656 214.424 32.5781C214.857 32.8906 215.074 33.3594 215.074 33.9844C215.074 34.6523 214.848 35.1562 214.395 35.4961C213.945 35.832 213.285 36 212.414 36H209.725V29.5195H211.102V32.1094ZM213.709 34.0195C213.709 33.6953 213.588 33.4688 213.346 33.3398C213.107 33.2109 212.764 33.1465 212.314 33.1465H211.102V34.9805H212.139C212.693 34.9805 213.094 34.9023 213.34 34.7461C213.586 34.5898 213.709 34.3477 213.709 34.0195ZM217.477 36H216.094V29.5195H217.477V36ZM225.076 31.1777C225.076 31.9434 224.629 32.4062 223.734 32.5664V32.6133C224.234 32.6719 224.617 32.8301 224.883 33.0879C225.148 33.3457 225.281 33.6797 225.281 34.0898C225.281 34.7031 225.047 35.1758 224.578 35.5078C224.113 35.8359 223.436 36 222.545 36H219.451V29.5195H222.533C224.229 29.5195 225.076 30.0723 225.076 31.1777ZM223.869 34.0078C223.869 33.6953 223.748 33.4746 223.506 33.3457C223.264 33.2129 222.9 33.1465 222.416 33.1465H220.828V34.9805H222.451C223.396 34.9805 223.869 34.6562 223.869 34.0078ZM223.699 31.2949C223.699 31.0371 223.598 30.8516 223.395 30.7383C223.195 30.6211 222.896 30.5625 222.498 30.5625H220.828V32.1211H222.293C222.754 32.1211 223.104 32.0625 223.342 31.9453C223.58 31.8242 223.699 31.6074 223.699 31.2949ZM232.453 32.748C232.453 33.8066 232.182 34.6328 231.639 35.2266C231.096 35.8203 230.34 36.1172 229.371 36.1172C228.766 36.1172 228.23 35.9805 227.766 35.707C227.301 35.4336 226.943 35.041 226.693 34.5293C226.443 34.0176 226.318 33.4238 226.318 32.748C226.318 31.6973 226.588 30.877 227.127 30.2871C227.666 29.6973 228.426 29.4023 229.406 29.4023C230.344 29.4023 231.086 29.7051 231.633 30.3105C232.18 30.9121 232.453 31.7246 232.453 32.748ZM227.736 32.748C227.736 34.2441 228.289 34.9922 229.395 34.9922C230.488 34.9922 231.035 34.2441 231.035 32.748C231.035 31.2676 230.484 30.5273 229.383 30.5273C228.805 30.5273 228.385 30.7188 228.123 31.1016C227.865 31.4844 227.736 32.0332 227.736 32.748ZM240.258 38.291H238.975V36H234.533V38.291H233.262V34.9336H233.789C234.25 34.2734 234.615 33.4766 234.885 32.543C235.158 31.6055 235.32 30.5977 235.371 29.5195H239.309V34.9336H240.258V38.291ZM237.955 34.9336V30.5742H236.561C236.486 31.3789 236.33 32.1719 236.092 32.9531C235.857 33.7344 235.57 34.3945 235.23 34.9336H237.955ZM242.836 32.1094H244.148C245.055 32.1094 245.725 32.2656 246.158 32.5781C246.592 32.8906 246.809 33.3594 246.809 33.9844C246.809 34.6523 246.582 35.1562 246.129 35.4961C245.68 35.832 245.02 36 244.148 36H241.459V29.5195H242.836V32.1094ZM245.443 34.0195C245.443 33.6953 245.322 33.4688 245.08 33.3398C244.842 33.2109 244.498 33.1465 244.049 33.1465H242.836V34.9805H243.873C244.428 34.9805 244.828 34.9023 245.074 34.7461C245.32 34.5898 245.443 34.3477 245.443 34.0195ZM249.211 36H247.828V29.5195H249.211V36ZM65.3965 47.1777C65.3965 47.9434 64.9492 48.4062 64.0547 48.5664V48.6133C64.5547 48.6719 64.9375 48.8301 65.2031 49.0879C65.4688 49.3457 65.6016 49.6797 65.6016 50.0898C65.6016 50.7031 65.3672 51.1758 64.8984 51.5078C64.4336 51.8359 63.7559 52 62.8652 52H59.7715V45.5195H62.8535C64.5488 45.5195 65.3965 46.0723 65.3965 47.1777ZM64.1895 50.0078C64.1895 49.6953 64.0684 49.4746 63.8262 49.3457C63.584 49.2129 63.2207 49.1465 62.7363 49.1465H61.1484V50.9805H62.7715C63.7168 50.9805 64.1895 50.6562 64.1895 50.0078ZM64.0195 47.2949C64.0195 47.0371 63.918 46.8516 63.7148 46.7383C63.5156 46.6211 63.2168 46.5625 62.8184 46.5625H61.1484V48.1211H62.6133C63.0742 48.1211 63.4238 48.0625 63.6621 47.9453C63.9004 47.8242 64.0195 47.6074 64.0195 47.2949ZM68.4023 48.1094H69.7148C70.6211 48.1094 71.291 48.2656 71.7246 48.5781C72.1582 48.8906 72.375 49.3594 72.375 49.9844C72.375 50.6523 72.1484 51.1562 71.6953 51.4961C71.2461 51.832 70.5859 52 69.7148 52H67.0254V45.5195H68.4023V48.1094ZM71.0098 50.0195C71.0098 49.6953 70.8887 49.4688 70.6465 49.3398C70.4082 49.2109 70.0645 49.1465 69.6152 49.1465H68.4023V50.9805H69.4395C69.9941 50.9805 70.3945 50.9023 70.6406 50.7461C70.8867 50.5898 71.0098 50.3477 71.0098 50.0195ZM74.7773 52H73.3945V45.5195H74.7773V52ZM78.1816 48.1094C78.8105 48.1094 79.2734 48.041 79.5703 47.9043C79.8672 47.7637 80.0156 47.5488 80.0156 47.2598C80.0156 46.7324 79.5469 46.4688 78.6094 46.4688C77.9844 46.4688 77.3457 46.6094 76.6934 46.8906L76.248 45.8652C77.002 45.5566 77.834 45.4023 78.7441 45.4023C79.5488 45.4023 80.1738 45.5508 80.6191 45.8477C81.0645 46.1406 81.2871 46.5625 81.2871 47.1133C81.2871 47.8398 80.8711 48.3164 80.0391 48.543V48.5898C80.5586 48.7305 80.9297 48.9316 81.1523 49.1934C81.3789 49.4551 81.4922 49.7793 81.4922 50.166C81.4922 50.7598 81.2305 51.2344 80.707 51.5898C80.1875 51.9414 79.4609 52.1172 78.5273 52.1172C77.5078 52.1172 76.7285 51.9824 76.1895 51.7129V50.5234C76.9043 50.8594 77.6445 51.0273 78.4102 51.0273C78.9609 51.0273 79.3848 50.9512 79.6816 50.7988C79.9824 50.6426 80.1328 50.4062 80.1328 50.0898C80.1328 49.7656 79.9824 49.5273 79.6816 49.375C79.3809 49.2227 78.916 49.1465 78.2871 49.1465H77.4961V48.1094H78.1816ZM84.3633 48.1094H85.6758C86.582 48.1094 87.252 48.2656 87.6855 48.5781C88.1191 48.8906 88.3359 49.3594 88.3359 49.9844C88.3359 50.6523 88.1094 51.1562 87.6562 51.4961C87.207 51.832 86.5469 52 85.6758 52H82.9863V45.5195H84.3633V48.1094ZM86.9707 50.0195C86.9707 49.6953 86.8496 49.4688 86.6074 49.3398C86.3691 49.2109 86.0254 49.1465 85.5762 49.1465H84.3633V50.9805H85.4004C85.9551 50.9805 86.3555 50.9023 86.6016 50.7461C86.8477 50.5898 86.9707 50.3477 86.9707 50.0195ZM90.7383 52H89.3555V45.5195H90.7383V52ZM98.3379 47.1777C98.3379 47.9434 97.8906 48.4062 96.9961 48.5664V48.6133C97.4961 48.6719 97.8789 48.8301 98.1445 49.0879C98.4102 49.3457 98.543 49.6797 98.543 50.0898C98.543 50.7031 98.3086 51.1758 97.8398 51.5078C97.375 51.8359 96.6973 52 95.8066 52H92.7129V45.5195H95.7949C97.4902 45.5195 98.3379 46.0723 98.3379 47.1777ZM97.1309 50.0078C97.1309 49.6953 97.0098 49.4746 96.7676 49.3457C96.5254 49.2129 96.1621 49.1465 95.6777 49.1465H94.0898V50.9805H95.7129C96.6582 50.9805 97.1309 50.6562 97.1309 50.0078ZM96.9609 47.2949C96.9609 47.0371 96.8594 46.8516 96.6562 46.7383C96.457 46.6211 96.1582 46.5625 95.7598 46.5625H94.0898V48.1211H95.5547C96.0156 48.1211 96.3652 48.0625 96.6035 47.9453C96.8418 47.8242 96.9609 47.6074 96.9609 47.2949ZM104.021 52L103.746 51.0977H103.699C103.387 51.4922 103.072 51.7617 102.756 51.9062C102.439 52.0469 102.033 52.1172 101.537 52.1172C100.9 52.1172 100.402 51.9453 100.043 51.6016C99.6875 51.2578 99.5098 50.7715 99.5098 50.1426C99.5098 49.4746 99.7578 48.9707 100.254 48.6309C100.75 48.291 101.506 48.1055 102.521 48.0742L103.641 48.0391V47.6934C103.641 47.2793 103.543 46.9707 103.348 46.7676C103.156 46.5605 102.857 46.457 102.451 46.457C102.119 46.457 101.801 46.5059 101.496 46.6035C101.191 46.7012 100.898 46.8164 100.617 46.9492L100.172 45.9648C100.523 45.7812 100.908 45.6426 101.326 45.5488C101.744 45.4512 102.139 45.4023 102.51 45.4023C103.334 45.4023 103.955 45.582 104.373 45.9414C104.795 46.3008 105.006 46.8652 105.006 47.6348V52H104.021ZM101.971 51.0625C102.471 51.0625 102.871 50.9238 103.172 50.6465C103.477 50.3652 103.629 49.9727 103.629 49.4688V48.9062L102.797 48.9414C102.148 48.9648 101.676 49.0742 101.379 49.2695C101.086 49.4609 100.939 49.7559 100.939 50.1543C100.939 50.4434 101.025 50.668 101.197 50.8281C101.369 50.9844 101.627 51.0625 101.971 51.0625ZM115.582 48.748C115.582 49.8105 115.322 50.6387 114.803 51.2324C114.287 51.8223 113.566 52.1172 112.641 52.1172C111.789 52.1172 111.111 51.8672 110.607 51.3672C110.107 50.8633 109.816 50.1426 109.734 49.2051H108.305V52H106.928V45.5195H108.305V48.1211H109.746C109.844 47.2617 110.145 46.5938 110.648 46.1172C111.156 45.6406 111.828 45.4023 112.664 45.4023C113.562 45.4023 114.273 45.7051 114.797 46.3105C115.32 46.9121 115.582 47.7246 115.582 48.748ZM111.141 48.748C111.141 49.4863 111.258 50.0449 111.492 50.4238C111.73 50.8027 112.117 50.9922 112.652 50.9922C113.184 50.9922 113.568 50.8027 113.807 50.4238C114.045 50.0449 114.164 49.4863 114.164 48.748C114.164 48.0176 114.045 47.4648 113.807 47.0898C113.568 46.7148 113.184 46.5273 112.652 46.5273C112.117 46.5273 111.73 46.7148 111.492 47.0898C111.258 47.4648 111.141 48.0176 111.141 48.748ZM122.051 45.5195V46.5977H119.941V52H118.559V46.5977H116.449V45.5195H122.051ZM125.432 45.5195H126.932L128.25 49.1934C128.449 49.7168 128.582 50.209 128.648 50.6699H128.695C128.73 50.4551 128.795 50.1953 128.889 49.8906C128.982 49.582 129.479 48.125 130.377 45.5195H131.865L129.094 52.8613C128.59 54.209 127.75 54.8828 126.574 54.8828C126.27 54.8828 125.973 54.8496 125.684 54.7832V53.6934C125.891 53.7402 126.127 53.7637 126.393 53.7637C127.057 53.7637 127.523 53.3789 127.793 52.6094L128.033 52L125.432 45.5195ZM141.592 47.1777C141.592 47.9434 141.145 48.4062 140.25 48.5664V48.6133C140.75 48.6719 141.133 48.8301 141.398 49.0879C141.664 49.3457 141.797 49.6797 141.797 50.0898C141.797 50.7031 141.562 51.1758 141.094 51.5078C140.629 51.8359 139.951 52 139.061 52H135.967V45.5195H139.049C140.744 45.5195 141.592 46.0723 141.592 47.1777ZM140.385 50.0078C140.385 49.6953 140.264 49.4746 140.021 49.3457C139.779 49.2129 139.416 49.1465 138.932 49.1465H137.344V50.9805H138.967C139.912 50.9805 140.385 50.6562 140.385 50.0078ZM140.215 47.2949C140.215 47.0371 140.113 46.8516 139.91 46.7383C139.711 46.6211 139.412 46.5625 139.014 46.5625H137.344V48.1211H138.809C139.27 48.1211 139.619 48.0625 139.857 47.9453C140.096 47.8242 140.215 47.6074 140.215 47.2949ZM147.275 52L147 51.0977H146.953C146.641 51.4922 146.326 51.7617 146.01 51.9062C145.693 52.0469 145.287 52.1172 144.791 52.1172C144.154 52.1172 143.656 51.9453 143.297 51.6016C142.941 51.2578 142.764 50.7715 142.764 50.1426C142.764 49.4746 143.012 48.9707 143.508 48.6309C144.004 48.291 144.76 48.1055 145.775 48.0742L146.895 48.0391V47.6934C146.895 47.2793 146.797 46.9707 146.602 46.7676C146.41 46.5605 146.111 46.457 145.705 46.457C145.373 46.457 145.055 46.5059 144.75 46.6035C144.445 46.7012 144.152 46.8164 143.871 46.9492L143.426 45.9648C143.777 45.7812 144.162 45.6426 144.58 45.5488C144.998 45.4512 145.393 45.4023 145.764 45.4023C146.588 45.4023 147.209 45.582 147.627 45.9414C148.049 46.3008 148.26 46.8652 148.26 47.6348V52H147.275ZM145.225 51.0625C145.725 51.0625 146.125 50.9238 146.426 50.6465C146.73 50.3652 146.883 49.9727 146.883 49.4688V48.9062L146.051 48.9414C145.402 48.9648 144.93 49.0742 144.633 49.2695C144.34 49.4609 144.193 49.7559 144.193 50.1543C144.193 50.4434 144.279 50.668 144.451 50.8281C144.623 50.9844 144.881 51.0625 145.225 51.0625ZM152.795 52.1172C151.814 52.1172 151.068 51.832 150.557 51.2617C150.049 50.6875 149.795 49.8652 149.795 48.7949C149.795 47.7051 150.061 46.8672 150.592 46.2812C151.127 45.6953 151.898 45.4023 152.906 45.4023C153.59 45.4023 154.205 45.5293 154.752 45.7832L154.336 46.8906C153.754 46.6641 153.273 46.5508 152.895 46.5508C151.773 46.5508 151.213 47.2949 151.213 48.7832C151.213 49.5098 151.352 50.0566 151.629 50.4238C151.91 50.7871 152.32 50.9688 152.859 50.9688C153.473 50.9688 154.053 50.8164 154.6 50.5117V51.7129C154.354 51.8574 154.09 51.9609 153.809 52.0234C153.531 52.0859 153.193 52.1172 152.795 52.1172ZM160.477 52.1172C159.754 52.1172 159.143 51.9941 158.643 51.748V50.6172C159.264 50.8906 159.867 51.0273 160.453 51.0273C161.57 51.0273 162.166 50.416 162.24 49.1934H159.387V48.1855H162.24C162.193 47.6035 162.035 47.1758 161.766 46.9023C161.496 46.6289 161.105 46.4922 160.594 46.4922C160.211 46.4922 159.707 46.6035 159.082 46.8262L158.701 45.8066C158.963 45.6855 159.264 45.5879 159.604 45.5137C159.947 45.4395 160.285 45.4023 160.617 45.4023C161.637 45.4023 162.4 45.6836 162.908 46.2461C163.416 46.8086 163.67 47.6348 163.67 48.7246C163.67 49.8145 163.396 50.6523 162.85 51.2383C162.307 51.8242 161.516 52.1172 160.477 52.1172ZM168.984 50.6816L169.061 50.4004C169.221 49.8184 169.359 49.3711 169.477 49.0586L170.93 45.5195H172.764V52H171.492V46.7676L171.387 47.1191C171.211 47.748 171.062 48.2109 170.941 48.5078L169.523 52H168.48L167.062 48.4844C166.867 47.9766 166.688 47.4043 166.523 46.7676V52H165.264V45.5195H167.086L168.492 48.9531C168.617 49.2695 168.781 49.8457 168.984 50.6816ZM180.48 48.748C180.48 49.8066 180.209 50.6328 179.666 51.2266C179.123 51.8203 178.367 52.1172 177.398 52.1172C176.793 52.1172 176.258 51.9805 175.793 51.707C175.328 51.4336 174.971 51.041 174.721 50.5293C174.471 50.0176 174.346 49.4238 174.346 48.748C174.346 47.6973 174.615 46.877 175.154 46.2871C175.693 45.6973 176.453 45.4023 177.434 45.4023C178.371 45.4023 179.113 45.7051 179.66 46.3105C180.207 46.9121 180.48 47.7246 180.48 48.748ZM175.764 48.748C175.764 50.2441 176.316 50.9922 177.422 50.9922C178.516 50.9922 179.062 50.2441 179.062 48.748C179.062 47.2676 178.512 46.5273 177.41 46.5273C176.832 46.5273 176.412 46.7188 176.15 47.1016C175.893 47.4844 175.764 48.0332 175.764 48.748ZM187.84 50.9336H188.777V54.2793H187.482V52H182.068V45.5195H183.445V50.9102H186.463V45.5195H187.84V50.9336ZM191.273 45.5195V48.8418C191.273 49.2285 191.242 49.7969 191.18 50.5469L194.432 45.5195H196.113V52H194.789V48.7363C194.789 48.5566 194.799 48.2656 194.818 47.8633C194.842 47.4609 194.861 47.168 194.877 46.9844L191.637 52H189.955V45.5195H191.273ZM199.395 45.5195V48.8418C199.395 49.2285 199.363 49.7969 199.301 50.5469L202.553 45.5195H204.234V52H202.91V48.7363C202.91 48.5566 202.92 48.2656 202.939 47.8633C202.963 47.4609 202.982 47.168 202.998 46.9844L199.758 52H198.076V45.5195H199.395Z" fill="white"/>
</svg>
